<svg xmlns="http://www.w3.org/2000/svg" xmlns:xlink="http://www.w3.org/1999/xlink" width="595" zoomAndPan="magnify" viewBox="0 0 446.25 446.249989" height="595" preserveAspectRatio="xMidYMid meet" version="1.0"><path fill="#ffffff" d="M 88.625 141.816406 C 88.625 141.816406 97.363281 121.410156 91.199219 115.210938 C 87.296875 111.253906 74.960938 116.628906 88.625 141.816406 Z M 88.625 141.816406 " fill-opacity="1" fill-rule="nonzero"/><path fill="#ffffff" d="M 102.585938 147.746094 C 102.585938 147.746094 121.0625 135.382812 119.230469 126.824219 C 118.09375 121.410156 104.828125 119.210938 102.585938 147.746094 Z M 102.585938 147.746094 " fill-opacity="1" fill-rule="nonzero"/><path fill="#ffffff" d="M 75.203125 147.746094 C 75.203125 147.746094 56.769531 135.382812 58.558594 126.824219 C 59.703125 121.410156 72.96875 119.210938 75.203125 147.746094 Z M 75.203125 147.746094 " fill-opacity="1" fill-rule="nonzero"/><path fill="#ffffff" d="M 67.675781 253.519531 L 67.621094 253.519531 L 67.675781 253.554688 Z M 67.675781 253.519531 " fill-opacity="1" fill-rule="nonzero"/><path fill="#ffffff" d="M 86.707031 158.164062 C 88.9375 158.054688 91.164062 158.113281 93.386719 158.332031 C 95.609375 158.550781 97.800781 158.929688 99.96875 159.46875 C 102.132812 160.007812 104.25 160.699219 106.316406 161.550781 C 108.378906 162.398438 110.371094 163.390625 112.289062 164.53125 C 114.210938 165.671875 116.035156 166.945312 117.769531 168.351562 C 119.503906 169.757812 121.125 171.285156 122.636719 172.929688 C 124.144531 174.574219 125.527344 176.316406 126.78125 178.164062 C 128.039062 180.011719 129.152344 181.9375 130.125 183.945312 L 130.125 151.289062 L 47.664062 151.289062 L 47.664062 183.945312 C 48.558594 182.101562 49.570312 180.324219 50.703125 178.617188 C 51.832031 176.910156 53.074219 175.285156 54.421875 173.742188 C 55.773438 172.199219 57.21875 170.753906 58.765625 169.40625 C 60.308594 168.058594 61.933594 166.820312 63.644531 165.691406 C 65.355469 164.5625 67.132812 163.550781 68.976562 162.660156 C 70.824219 161.769531 72.722656 161.007812 74.667969 160.371094 C 76.617188 159.738281 78.597656 159.234375 80.613281 158.863281 C 82.628906 158.492188 84.660156 158.261719 86.707031 158.164062 Z M 86.707031 158.164062 " fill-opacity="1" fill-rule="nonzero"/><path fill="#ffffff" d="M 125.484375 231.429688 C 122.972656 235.582031 118.40625 242.644531 114.164062 246.769531 C 113.585938 247.515625 112.988281 248.234375 112.375 248.914062 C 107.40625 254.453125 101.667969 259.019531 95.15625 262.617188 C 98.921875 262.679688 102.582031 262.085938 106.132812 260.839844 C 106.132812 260.839844 105.980469 272.175781 103.582031 276.660156 C 103.582031 276.660156 77.015625 276.839844 70.042969 268.578125 C 70.042969 268.578125 66.5 262.839844 67.621094 253.5 C 89.613281 250.953125 102.992188 240.023438 109.484375 233 C 110.8125 231.078125 112.144531 229.339844 113.15625 228.074219 C 113.328125 227.882812 113.488281 227.6875 113.652344 227.496094 L 113.652344 227.292969 L 113.953125 227.128906 C 115.40625 225.367188 116.6875 223.484375 117.796875 221.484375 C 118.902344 219.484375 119.8125 217.398438 120.527344 215.230469 C 121.246094 213.058594 121.753906 210.839844 122.058594 208.574219 C 122.359375 206.308594 122.449219 204.035156 122.328125 201.753906 C 121.386719 182.09375 105.628906 166.867188 87.144531 167.75 C 68.660156 168.636719 54.429688 185.300781 55.371094 204.964844 C 55.464844 207.117188 55.746094 209.25 56.210938 211.355469 C 56.679688 213.460938 57.324219 215.507812 58.148438 217.503906 C 58.976562 219.496094 59.96875 221.402344 61.128906 223.21875 C 62.289062 225.039062 63.597656 226.742188 65.054688 228.332031 L 65.195312 228.457031 C 65.699219 228.996094 66.226562 229.507812 66.757812 230.019531 C 66.757812 230.019531 76.800781 240.785156 91.75 237.484375 C 106.703125 234.183594 107.960938 227.371094 107.960938 227.371094 C 107.960938 227.371094 107.191406 241.566406 84.792969 245.535156 C 70.722656 248.035156 58.582031 238.246094 58.582031 238.246094 C 57.847656 237.59375 57.136719 236.929688 56.441406 236.246094 L 56.257812 236.078125 C 52.710938 232.460938 49.847656 228.363281 47.664062 223.792969 L 47.664062 296.285156 L 130.125 296.285156 L 130.125 223.765625 C 128.832031 226.472656 127.28125 229.027344 125.484375 231.429688 Z M 88.714844 289.421875 C 77.859375 288.738281 79.554688 278.789062 79.554688 278.789062 C 79.554688 278.789062 95.226562 284.046875 102.128906 281.820312 C 102.140625 281.828125 99.574219 290.109375 88.714844 289.421875 Z M 88.714844 289.421875 " fill-opacity="1" fill-rule="nonzero"/><path fill="#ffffff" d="M 142.597656 151.191406 L 155.050781 151.191406 C 157.609375 151.191406 158.414062 152.074219 158.414062 154.558594 L 158.414062 194.054688 L 177.71875 194.054688 C 180.203125 194.054688 181.089844 194.855469 181.089844 197.421875 L 181.089844 204.714844 C 181.089844 207.199219 180.203125 208.074219 177.71875 208.074219 L 142.597656 208.074219 " fill-opacity="1" fill-rule="nonzero"/><path fill="#ffffff" d="M 186.347656 204.875 L 186.347656 154.371094 C 186.347656 151.972656 187.148438 151.167969 189.558594 151.167969 L 198.929688 151.167969 C 201.332031 151.167969 202.132812 151.972656 202.132812 154.371094 L 202.132812 204.875 C 202.132812 207.273438 201.332031 208.074219 198.929688 208.074219 L 189.550781 208.074219 C 187.148438 208.074219 186.347656 207.273438 186.347656 204.875 Z M 186.347656 204.875 " fill-opacity="1" fill-rule="nonzero"/><path fill="#ffffff" d="M 210.34375 186.609375 L 210.34375 172.664062 C 210.34375 159.484375 218.769531 151.289062 233.867188 151.289062 C 245.660156 151.289062 253.015625 156.128906 256.164062 164.695312 C 257 166.914062 256.390625 167.988281 254.171875 168.84375 L 245.972656 171.757812 C 243.59375 172.449219 242.679688 172.0625 241.820312 169.683594 C 240.4375 166.222656 238.21875 164.699219 233.851562 164.699219 C 227.800781 164.699219 225.425781 167.308594 225.425781 172.59375 L 225.425781 186.6875 C 225.425781 191.976562 227.800781 194.578125 233.851562 194.578125 C 238.984375 194.578125 242.152344 192.664062 242.152344 189.371094 L 242.152344 187.839844 L 234.785156 187.839844 C 232.414062 187.839844 231.570312 186.996094 231.570312 184.625 L 231.570312 178.875 C 231.570312 176.421875 232.414062 175.582031 234.785156 175.582031 L 254.15625 175.582031 C 256.527344 175.582031 257.371094 176.421875 257.371094 178.875 L 257.371094 188.988281 C 257.371094 199.789062 248.941406 207.984375 233.851562 207.984375 C 218.765625 207.984375 210.34375 199.78125 210.34375 186.609375 Z M 210.34375 186.609375 " fill-opacity="1" fill-rule="nonzero"/><path fill="#ffffff" d="M 265.203125 204.714844 L 265.203125 154.558594 C 265.203125 152.074219 266.007812 151.191406 268.566406 151.191406 L 277.621094 151.191406 C 280.1875 151.191406 280.992188 152.074219 280.992188 154.558594 L 280.992188 172.253906 L 296.527344 172.253906 L 296.527344 154.558594 C 296.527344 152.074219 297.414062 151.191406 299.988281 151.191406 L 309.035156 151.191406 C 311.519531 151.191406 312.398438 152.074219 312.398438 154.558594 L 312.398438 204.714844 C 312.398438 207.199219 311.519531 208.074219 309.035156 208.074219 L 299.980469 208.074219 C 297.414062 208.074219 296.519531 207.199219 296.519531 204.714844 L 296.519531 186.203125 L 280.992188 186.203125 L 280.992188 204.714844 C 280.992188 207.199219 280.1875 208.074219 277.621094 208.074219 L 268.566406 208.074219 C 266.007812 208.074219 265.203125 207.199219 265.203125 204.714844 Z M 265.203125 204.714844 " fill-opacity="1" fill-rule="nonzero"/><path fill="#ffffff" d="M 333 204.714844 L 333 165.128906 L 321.058594 165.128906 C 318.492188 165.128906 317.691406 164.335938 317.691406 161.769531 L 317.691406 154.558594 C 317.691406 152.074219 318.492188 151.191406 321.058594 151.191406 L 360.71875 151.191406 C 363.277344 151.191406 364.082031 152.074219 364.082031 154.558594 L 364.082031 161.769531 C 364.082031 164.335938 363.277344 165.128906 360.71875 165.128906 L 348.777344 165.128906 L 348.777344 204.714844 C 348.777344 207.199219 347.976562 208.074219 345.417969 208.074219 L 336.363281 208.074219 C 333.792969 208.074219 333 207.199219 333 204.714844 Z M 333 204.714844 " fill-opacity="1" fill-rule="nonzero"/><path fill="#ffffff" d="M 142.597656 220.542969 L 169.433594 220.542969 C 180.5 220.542969 187.144531 225.910156 187.144531 235.683594 C 187.144531 241.054688 185.460938 244.679688 181.375 247.445312 L 181.375 247.765625 C 186.5 250.011719 189.46875 254.578125 189.46875 261.542969 C 189.46875 271.878906 181.054688 277.40625 169.757812 277.40625 L 142.597656 277.40625 M 171.113281 237.828125 C 171.113281 234.703125 169.355469 233.339844 166.152344 233.339844 L 158.378906 233.339844 L 158.378906 242.152344 L 166.152344 242.152344 C 169.355469 242.175781 171.113281 240.976562 171.113281 237.851562 Z M 172.878906 259.703125 C 172.878906 256.5 171.113281 255.054688 167.667969 255.054688 L 158.378906 255.054688 L 158.378906 264.511719 L 167.667969 264.511719 C 171.113281 264.53125 172.878906 263.085938 172.878906 259.726562 Z M 172.878906 259.703125 " fill-opacity="1" fill-rule="nonzero"/><path fill="#ffffff" d="M 195.277344 255.960938 L 195.277344 241.996094 C 195.277344 228.765625 203.65625 220.550781 218.882812 220.550781 C 234.109375 220.550781 242.480469 228.773438 242.480469 241.996094 L 242.480469 255.960938 C 242.480469 269.183594 234.023438 277.40625 218.882812 277.40625 C 203.738281 277.40625 195.277344 269.203125 195.277344 255.960938 Z M 227.257812 256.578125 L 227.257812 241.359375 C 227.257812 236.515625 224.179688 233.976562 218.882812 233.976562 C 213.582031 233.976562 210.421875 236.515625 210.421875 241.359375 L 210.421875 256.578125 C 210.421875 261.421875 213.5 263.957031 218.882812 263.957031 C 224.265625 263.957031 227.257812 261.441406 227.257812 256.597656 Z M 227.257812 256.578125 " fill-opacity="1" fill-rule="nonzero"/><path fill="#ffffff" d="M 244.6875 274.066406 L 261.191406 248.429688 L 245.488281 223.753906 C 244.292969 221.988281 244.851562 220.542969 247.09375 220.542969 L 256.652344 220.542969 C 260.742188 220.542969 261.78125 220.867188 263.300781 223.351562 L 270.488281 235.769531 L 277.621094 223.351562 C 279.144531 220.703125 280.179688 220.542969 283.785156 220.542969 L 294.042969 220.542969 C 296.285156 220.542969 296.769531 221.988281 295.648438 223.753906 L 279.78125 248.429688 L 296.445312 274.066406 C 297.730469 275.828125 297.246094 277.429688 294.765625 277.429688 L 284.503906 277.429688 C 280.355469 277.429688 279.378906 277.191406 277.855469 274.46875 L 270.246094 261.246094 L 262.796875 274.46875 C 261.273438 276.949219 260.554688 277.429688 256.226562 277.429688 L 246.375 277.429688 C 243.964844 277.40625 243.40625 276.023438 244.6875 274.066406 Z M 244.6875 274.066406 " fill-opacity="1" fill-rule="nonzero"/><path fill="#ffffff" d="M 145.207031 295.035156 L 146.777344 290.191406 L 147.882812 290.191406 L 145.609375 296.519531 L 144.785156 296.519531 L 142.507812 290.171875 L 143.617188 290.171875 Z M 145.207031 295.035156 " fill-opacity="1" fill-rule="nonzero"/><path fill="#ffffff" d="M 149.710938 293.277344 C 149.703125 292.691406 149.824219 292.132812 150.078125 291.601562 C 150.304688 291.125 150.644531 290.742188 151.09375 290.460938 C 151.550781 290.179688 152.046875 290.046875 152.582031 290.054688 C 153.414062 290.027344 154.105469 290.328125 154.65625 290.953125 C 155.230469 291.640625 155.496094 292.4375 155.453125 293.332031 L 155.453125 293.410156 C 155.460938 293.988281 155.34375 294.542969 155.097656 295.070312 C 154.875 295.550781 154.539062 295.929688 154.089844 296.210938 C 153.625 296.496094 153.121094 296.632812 152.574219 296.617188 C 151.742188 296.644531 151.050781 296.347656 150.5 295.726562 C 149.925781 295.039062 149.65625 294.246094 149.695312 293.351562 Z M 150.796875 293.410156 C 150.765625 294.027344 150.929688 294.589844 151.289062 295.097656 C 151.445312 295.300781 151.636719 295.457031 151.867188 295.570312 C 152.097656 295.683594 152.339844 295.742188 152.597656 295.742188 C 152.855469 295.742188 153.097656 295.683594 153.328125 295.570312 C 153.558594 295.457031 153.753906 295.300781 153.910156 295.097656 C 154.269531 294.546875 154.433594 293.941406 154.394531 293.285156 C 154.421875 292.664062 154.253906 292.101562 153.894531 291.597656 C 153.570312 291.152344 153.132812 290.9375 152.582031 290.953125 C 152.039062 290.9375 151.605469 291.148438 151.289062 291.589844 C 150.925781 292.140625 150.765625 292.75 150.808594 293.410156 Z M 150.796875 293.410156 " fill-opacity="1" fill-rule="nonzero"/><path fill="#ffffff" d="M 159.464844 288.636719 L 159.464844 290.171875 L 160.648438 290.171875 L 160.648438 291.007812 L 159.464844 291.007812 L 159.464844 294.9375 C 159.449219 295.148438 159.5 295.339844 159.625 295.511719 C 159.773438 295.65625 159.953125 295.71875 160.164062 295.699219 C 160.335938 295.691406 160.507812 295.667969 160.675781 295.628906 L 160.675781 296.507812 C 160.402344 296.582031 160.125 296.617188 159.84375 296.617188 C 159.410156 296.652344 159.046875 296.503906 158.75 296.183594 C 158.472656 295.8125 158.347656 295.398438 158.378906 294.9375 L 158.378906 291.007812 L 157.230469 291.007812 L 157.230469 290.171875 L 158.378906 290.171875 L 158.378906 288.636719 Z M 159.464844 288.636719 " fill-opacity="1" fill-rule="nonzero"/><path fill="#ffffff" d="M 166.132812 291.144531 C 165.957031 291.117188 165.777344 291.105469 165.601562 291.105469 C 165.285156 291.078125 164.996094 291.148438 164.726562 291.316406 C 164.460938 291.484375 164.269531 291.714844 164.15625 292.011719 L 164.15625 296.5 L 163.074219 296.5 L 163.074219 290.171875 L 164.125 290.171875 L 164.125 290.902344 C 164.28125 290.632812 164.492188 290.421875 164.761719 290.269531 C 165.035156 290.117188 165.324219 290.042969 165.636719 290.054688 C 165.800781 290.042969 165.960938 290.070312 166.113281 290.136719 Z M 166.132812 291.144531 " fill-opacity="1" fill-rule="nonzero"/><path fill="#ffffff" d="M 170.808594 296.617188 C 169.992188 296.644531 169.300781 296.363281 168.734375 295.773438 C 168.152344 295.132812 167.878906 294.378906 167.925781 293.511719 L 167.925781 293.316406 C 167.914062 292.730469 168.035156 292.167969 168.285156 291.636719 C 168.511719 291.15625 168.847656 290.769531 169.292969 290.480469 C 169.710938 290.199219 170.175781 290.058594 170.679688 290.058594 C 171.453125 290.015625 172.09375 290.289062 172.601562 290.875 C 173.117188 291.570312 173.347656 292.34375 173.292969 293.207031 L 173.292969 293.65625 L 169.003906 293.65625 C 168.988281 294.230469 169.171875 294.734375 169.550781 295.164062 C 169.902344 295.566406 170.34375 295.761719 170.878906 295.746094 C 171.226562 295.753906 171.550781 295.675781 171.855469 295.511719 C 172.125 295.347656 172.355469 295.140625 172.546875 294.890625 L 173.238281 295.40625 C 172.972656 295.816406 172.625 296.128906 172.1875 296.34375 C 171.753906 296.5625 171.292969 296.652344 170.808594 296.617188 Z M 170.671875 290.945312 C 170.230469 290.9375 169.867188 291.097656 169.570312 291.421875 C 169.242188 291.808594 169.058594 292.253906 169.023438 292.757812 L 172.191406 292.757812 L 172.191406 292.675781 C 172.191406 292.199219 172.046875 291.769531 171.75 291.394531 C 171.460938 291.078125 171.101562 290.925781 170.671875 290.945312 Z M 170.671875 290.945312 " fill-opacity="1" fill-rule="nonzero"/><path fill="#ffffff" d="M 180.839844 290.171875 L 180.839844 290.863281 C 181.335938 290.28125 181.960938 290.007812 182.722656 290.039062 C 183.101562 290.003906 183.453125 290.078125 183.785156 290.261719 C 184.117188 290.449219 184.363281 290.714844 184.527344 291.054688 C 184.757812 290.726562 185.050781 290.472656 185.410156 290.292969 C 185.765625 290.113281 186.148438 290.027344 186.546875 290.039062 C 187.929688 290.039062 188.625 290.78125 188.664062 292.246094 L 188.664062 296.488281 L 187.613281 296.488281 L 187.613281 292.335938 C 187.640625 291.957031 187.539062 291.621094 187.300781 291.324219 C 187.003906 291.0625 186.652344 290.949219 186.257812 290.988281 C 185.875 290.96875 185.542969 291.089844 185.261719 291.347656 C 184.976562 291.605469 184.820312 291.929688 184.796875 292.316406 L 184.796875 296.515625 L 183.703125 296.515625 L 183.703125 292.363281 C 183.734375 292.175781 183.71875 291.992188 183.660156 291.8125 C 183.601562 291.628906 183.507812 291.472656 183.375 291.335938 C 183.242188 291.199219 183.085938 291.101562 182.90625 291.039062 C 182.726562 290.976562 182.542969 290.957031 182.355469 290.980469 C 182.039062 290.957031 181.746094 291.027344 181.476562 291.195312 C 181.207031 291.363281 181.015625 291.59375 180.894531 291.886719 L 180.894531 296.507812 L 179.816406 296.507812 L 179.816406 290.175781 Z M 180.839844 290.171875 " fill-opacity="1" fill-rule="nonzero"/><path fill="#ffffff" d="M 195.402344 296.5 C 195.308594 296.277344 195.257812 296.046875 195.242188 295.808594 C 194.761719 296.339844 194.160156 296.601562 193.445312 296.589844 C 192.863281 296.613281 192.351562 296.4375 191.910156 296.066406 C 191.496094 295.710938 191.296875 295.265625 191.308594 294.722656 C 191.292969 294.417969 191.351562 294.128906 191.488281 293.859375 C 191.621094 293.585938 191.8125 293.359375 192.0625 293.1875 C 192.707031 292.773438 193.414062 292.59375 194.179688 292.640625 L 195.230469 292.640625 L 195.230469 292.140625 C 195.25 291.789062 195.136719 291.488281 194.890625 291.234375 C 194.601562 290.984375 194.269531 290.871094 193.886719 290.898438 C 193.53125 290.882812 193.210938 290.980469 192.917969 291.1875 C 192.671875 291.351562 192.539062 291.582031 192.523438 291.878906 L 191.4375 291.878906 C 191.445312 291.535156 191.554688 291.226562 191.769531 290.960938 C 192.019531 290.652344 192.324219 290.421875 192.683594 290.265625 C 193.089844 290.09375 193.515625 290.007812 193.957031 290.011719 C 194.597656 289.976562 195.164062 290.15625 195.664062 290.558594 C 196.109375 290.960938 196.324219 291.464844 196.308594 292.066406 L 196.308594 294.980469 C 196.289062 295.457031 196.367188 295.917969 196.535156 296.363281 L 196.535156 296.453125 Z M 193.605469 295.675781 C 193.949219 295.675781 194.269531 295.589844 194.566406 295.414062 C 194.871094 295.257812 195.101562 295.027344 195.257812 294.722656 L 195.257812 293.421875 L 194.390625 293.421875 C 193.070312 293.421875 192.40625 293.808594 192.40625 294.589844 C 192.390625 294.910156 192.503906 295.175781 192.746094 295.386719 C 192.996094 295.589844 193.28125 295.6875 193.605469 295.675781 Z M 193.605469 295.675781 " fill-opacity="1" fill-rule="nonzero"/><path fill="#ffffff" d="M 202.230469 291.144531 C 202.054688 291.117188 201.875 291.101562 201.699219 291.105469 C 201.382812 291.078125 201.09375 291.148438 200.824219 291.316406 C 200.558594 291.484375 200.367188 291.714844 200.253906 292.011719 L 200.253906 296.5 L 199.171875 296.5 L 199.171875 290.171875 L 200.222656 290.171875 L 200.222656 290.902344 C 200.378906 290.632812 200.589844 290.421875 200.859375 290.269531 C 201.132812 290.117188 201.421875 290.042969 201.734375 290.054688 C 201.898438 290.042969 202.058594 290.070312 202.210938 290.136719 Z M 202.230469 291.144531 " fill-opacity="1" fill-rule="nonzero"/><path fill="#ffffff" d="M 204.015625 293.316406 C 203.96875 292.449219 204.199219 291.664062 204.707031 290.960938 C 204.925781 290.695312 205.191406 290.484375 205.503906 290.332031 C 205.8125 290.179688 206.140625 290.097656 206.484375 290.089844 C 206.832031 290.078125 207.164062 290.136719 207.484375 290.269531 C 207.800781 290.398438 208.082031 290.589844 208.316406 290.839844 L 208.367188 290.207031 L 209.363281 290.207031 L 209.363281 298.96875 L 208.277344 298.96875 L 208.277344 295.953125 C 207.800781 296.449219 207.21875 296.679688 206.535156 296.644531 C 206.175781 296.65625 205.832031 296.585938 205.507812 296.425781 C 205.1875 296.269531 204.917969 296.042969 204.707031 295.753906 C 204.203125 295.042969 203.972656 294.253906 204.015625 293.386719 Z M 205.101562 293.441406 C 205.066406 294.0625 205.21875 294.632812 205.558594 295.152344 C 205.859375 295.582031 206.273438 295.789062 206.796875 295.773438 C 207.101562 295.78125 207.390625 295.707031 207.65625 295.554688 C 207.917969 295.398438 208.125 295.1875 208.269531 294.917969 L 208.269531 291.816406 C 208.125 291.550781 207.917969 291.34375 207.65625 291.195312 C 207.394531 291.042969 207.113281 290.972656 206.808594 290.980469 C 206.28125 290.964844 205.863281 291.171875 205.558594 291.601562 C 205.214844 292.15625 205.0625 292.757812 205.101562 293.410156 Z M 205.101562 293.441406 " fill-opacity="1" fill-rule="nonzero"/><path fill="#ffffff" d="M 216.164062 295.878906 C 215.664062 296.425781 215.046875 296.671875 214.308594 296.617188 C 213.703125 296.660156 213.191406 296.464844 212.765625 296.03125 C 212.367188 295.519531 212.183594 294.941406 212.226562 294.292969 L 212.226562 290.144531 L 213.3125 290.144531 L 213.3125 294.230469 C 213.3125 295.191406 213.699219 295.671875 214.480469 295.671875 C 214.828125 295.710938 215.152344 295.644531 215.457031 295.476562 C 215.761719 295.304688 215.988281 295.066406 216.136719 294.75 L 216.136719 290.144531 L 217.222656 290.144531 L 217.222656 296.472656 L 216.183594 296.472656 Z M 216.164062 295.878906 " fill-opacity="1" fill-rule="nonzero"/><path fill="#ffffff" d="M 222.652344 296.617188 C 221.835938 296.644531 221.144531 296.363281 220.578125 295.773438 C 219.992188 295.132812 219.722656 294.378906 219.765625 293.511719 L 219.765625 293.316406 C 219.757812 292.730469 219.878906 292.171875 220.128906 291.636719 C 220.351562 291.15625 220.6875 290.769531 221.136719 290.480469 C 221.554688 290.203125 222.015625 290.0625 222.519531 290.058594 C 223.296875 290.015625 223.9375 290.289062 224.445312 290.875 C 224.960938 291.570312 225.191406 292.34375 225.136719 293.207031 L 225.136719 293.65625 L 220.847656 293.65625 C 220.832031 294.230469 221.015625 294.734375 221.394531 295.164062 C 221.746094 295.566406 222.1875 295.761719 222.722656 295.746094 C 223.066406 295.753906 223.390625 295.675781 223.695312 295.511719 C 223.96875 295.347656 224.199219 295.140625 224.386719 294.890625 L 225.082031 295.40625 C 224.816406 295.816406 224.464844 296.128906 224.03125 296.34375 C 223.597656 296.5625 223.136719 296.652344 222.652344 296.617188 Z M 222.515625 290.945312 C 222.074219 290.9375 221.707031 291.097656 221.414062 291.421875 C 221.085938 291.808594 220.902344 292.253906 220.867188 292.757812 L 224.035156 292.757812 L 224.035156 292.675781 C 224.035156 292.199219 223.886719 291.769531 223.59375 291.394531 C 223.304688 291.078125 222.941406 290.925781 222.515625 290.945312 Z M 222.515625 290.945312 " fill-opacity="1" fill-rule="nonzero"/><path fill="#ffffff" d="M 234.296875 296.617188 C 233.480469 296.644531 232.785156 296.363281 232.21875 295.773438 C 231.636719 295.132812 231.367188 294.378906 231.410156 293.511719 L 231.410156 293.316406 C 231.398438 292.730469 231.519531 292.167969 231.769531 291.636719 C 231.996094 291.15625 232.332031 290.769531 232.78125 290.480469 C 233.199219 290.199219 233.660156 290.058594 234.164062 290.058594 C 234.9375 290.015625 235.578125 290.289062 236.085938 290.875 C 236.605469 291.570312 236.835938 292.34375 236.777344 293.207031 L 236.777344 293.65625 L 232.488281 293.65625 C 232.476562 294.230469 232.65625 294.734375 233.035156 295.164062 C 233.386719 295.566406 233.832031 295.761719 234.363281 295.746094 C 234.710938 295.753906 235.035156 295.675781 235.339844 295.511719 C 235.609375 295.347656 235.839844 295.140625 236.03125 294.890625 L 236.722656 295.40625 C 236.457031 295.816406 236.109375 296.128906 235.675781 296.34375 C 235.238281 296.5625 234.78125 296.652344 234.296875 296.617188 Z M 234.15625 290.945312 C 233.71875 290.9375 233.351562 291.097656 233.054688 291.421875 C 232.726562 291.808594 232.546875 292.253906 232.511719 292.757812 L 235.679688 292.757812 L 235.679688 292.675781 C 235.679688 292.199219 235.53125 291.769531 235.234375 291.394531 C 234.945312 291.078125 234.585938 290.925781 234.15625 290.945312 Z M 234.15625 290.945312 " fill-opacity="1" fill-rule="nonzero"/><path fill="#ffffff" d="M 240.203125 290.171875 L 240.203125 290.964844 C 240.425781 290.671875 240.707031 290.441406 241.039062 290.28125 C 241.375 290.121094 241.726562 290.042969 242.097656 290.054688 C 243.429688 290.054688 244.105469 290.808594 244.125 292.320312 L 244.125 296.472656 L 243.039062 296.472656 L 243.039062 292.289062 C 243.070312 291.90625 242.964844 291.570312 242.726562 291.269531 C 242.457031 291.023438 242.136719 290.917969 241.773438 290.945312 C 241.433594 290.9375 241.125 291.035156 240.847656 291.230469 C 240.578125 291.421875 240.367188 291.664062 240.222656 291.960938 L 240.222656 296.472656 L 239.144531 296.472656 L 239.144531 290.144531 Z M 240.203125 290.171875 " fill-opacity="1" fill-rule="nonzero"/><path fill="#ffffff" d="M 251.175781 287.507812 L 252.261719 287.507812 L 252.261719 296.5 L 251.175781 296.5 Z M 251.175781 287.507812 " fill-opacity="1" fill-rule="nonzero"/><path fill="#ffffff" d="M 259.0625 295.878906 C 258.5625 296.425781 257.945312 296.671875 257.207031 296.617188 C 256.601562 296.660156 256.085938 296.464844 255.664062 296.03125 C 255.261719 295.519531 255.082031 294.941406 255.132812 294.292969 L 255.132812 290.144531 L 256.210938 290.144531 L 256.210938 294.230469 C 256.210938 295.191406 256.605469 295.671875 257.386719 295.671875 C 257.730469 295.710938 258.054688 295.644531 258.359375 295.476562 C 258.660156 295.308594 258.886719 295.066406 259.035156 294.75 L 259.035156 290.144531 L 260.113281 290.144531 L 260.113281 296.472656 L 259.082031 296.472656 Z M 259.0625 295.878906 " fill-opacity="1" fill-rule="nonzero"/><path fill="#ffffff" d="M 263.945312 290.171875 L 263.945312 290.863281 C 264.4375 290.28125 265.0625 290.007812 265.820312 290.039062 C 266.199219 290 266.554688 290.074219 266.886719 290.261719 C 267.21875 290.449219 267.46875 290.714844 267.632812 291.054688 C 267.847656 290.746094 268.121094 290.5 268.457031 290.324219 C 268.828125 290.125 269.226562 290.027344 269.652344 290.039062 C 271.035156 290.039062 271.726562 290.78125 271.769531 292.246094 L 271.769531 296.488281 L 270.683594 296.488281 L 270.683594 292.335938 C 270.710938 291.960938 270.609375 291.625 270.378906 291.324219 C 270.078125 291.0625 269.730469 290.949219 269.335938 290.988281 C 268.953125 290.972656 268.617188 291.09375 268.332031 291.347656 C 268.050781 291.609375 267.898438 291.933594 267.867188 292.316406 L 267.867188 296.515625 L 266.78125 296.515625 L 266.78125 292.363281 C 266.808594 292.175781 266.796875 291.992188 266.738281 291.8125 C 266.679688 291.628906 266.582031 291.472656 266.453125 291.335938 C 266.320312 291.199219 266.164062 291.101562 265.984375 291.039062 C 265.804688 290.976562 265.621094 290.957031 265.433594 290.980469 C 265.117188 290.957031 264.824219 291.027344 264.554688 291.195312 C 264.285156 291.363281 264.089844 291.59375 263.972656 291.886719 L 263.972656 296.507812 L 262.894531 296.507812 L 262.894531 290.175781 Z M 263.945312 290.171875 " fill-opacity="1" fill-rule="nonzero"/><path fill="#ffffff" d="M 274.597656 288.476562 C 274.597656 288.308594 274.652344 288.160156 274.757812 288.03125 C 274.890625 287.902344 275.050781 287.839844 275.234375 287.851562 C 275.421875 287.839844 275.582031 287.898438 275.710938 288.03125 C 275.828125 288.15625 275.882812 288.304688 275.878906 288.476562 C 275.882812 288.644531 275.828125 288.792969 275.710938 288.917969 C 275.578125 289.050781 275.421875 289.109375 275.234375 289.089844 C 275.050781 289.105469 274.890625 289.046875 274.757812 288.917969 C 274.648438 288.792969 274.59375 288.644531 274.597656 288.476562 Z M 275.769531 296.488281 L 274.6875 296.488281 L 274.6875 290.15625 L 275.769531 290.15625 Z M 275.769531 296.488281 " fill-opacity="1" fill-rule="nonzero"/><path fill="#ffffff" d="M 281.289062 296.617188 C 280.472656 296.644531 279.78125 296.363281 279.210938 295.773438 C 278.632812 295.128906 278.367188 294.375 278.410156 293.511719 L 278.410156 293.316406 C 278.398438 292.730469 278.519531 292.167969 278.769531 291.636719 C 278.992188 291.15625 279.328125 290.769531 279.773438 290.480469 C 280.191406 290.203125 280.652344 290.0625 281.15625 290.058594 C 281.929688 290.015625 282.570312 290.289062 283.074219 290.875 C 283.589844 291.570312 283.820312 292.34375 283.765625 293.207031 L 283.765625 293.65625 L 279.484375 293.65625 C 279.472656 294.230469 279.652344 294.734375 280.027344 295.164062 C 280.382812 295.566406 280.828125 295.761719 281.363281 295.746094 C 281.707031 295.753906 282.03125 295.675781 282.332031 295.511719 C 282.601562 295.347656 282.832031 295.140625 283.023438 294.890625 L 283.714844 295.40625 C 283.453125 295.816406 283.101562 296.125 282.667969 296.34375 C 282.230469 296.558594 281.773438 296.652344 281.289062 296.617188 Z M 281.773438 289.230469 L 280.867188 289.230469 L 279.359375 287.507812 L 280.660156 287.507812 Z M 281.15625 290.945312 C 280.71875 290.9375 280.351562 291.097656 280.058594 291.421875 C 279.726562 291.808594 279.539062 292.25 279.503906 292.757812 L 282.679688 292.757812 L 282.679688 292.675781 C 282.675781 292.195312 282.527344 291.769531 282.230469 291.394531 C 281.941406 291.078125 281.582031 290.929688 281.15625 290.945312 Z M 281.15625 290.945312 " fill-opacity="1" fill-rule="nonzero"/><path fill="#ffffff" d="M 289.238281 291.144531 C 289.058594 291.117188 288.882812 291.105469 288.703125 291.105469 C 288.390625 291.078125 288.097656 291.148438 287.828125 291.316406 C 287.5625 291.484375 287.371094 291.714844 287.257812 292.011719 L 287.257812 296.5 L 286.171875 296.5 L 286.171875 290.171875 L 287.230469 290.171875 L 287.230469 290.902344 C 287.386719 290.632812 287.597656 290.421875 287.871094 290.269531 C 288.140625 290.117188 288.433594 290.042969 288.746094 290.054688 C 288.910156 290.042969 289.070312 290.070312 289.222656 290.136719 Z M 289.238281 291.144531 " fill-opacity="1" fill-rule="nonzero"/><path fill="#ffffff" d="M 293.90625 296.617188 C 293.089844 296.644531 292.398438 296.363281 291.832031 295.773438 C 291.246094 295.132812 290.976562 294.378906 291.023438 293.511719 L 291.023438 293.316406 C 291.011719 292.730469 291.128906 292.167969 291.382812 291.636719 C 291.605469 291.15625 291.941406 290.773438 292.382812 290.480469 C 292.804688 290.203125 293.265625 290.0625 293.769531 290.058594 C 294.542969 290.015625 295.183594 290.289062 295.691406 290.875 C 296.207031 291.566406 296.441406 292.34375 296.382812 293.207031 L 296.382812 293.65625 L 292.09375 293.65625 C 292.085938 294.230469 292.269531 294.730469 292.640625 295.164062 C 292.996094 295.566406 293.441406 295.761719 293.976562 295.746094 C 294.320312 295.753906 294.640625 295.675781 294.945312 295.511719 C 295.214844 295.347656 295.445312 295.140625 295.636719 294.890625 L 296.328125 295.40625 C 296.0625 295.8125 295.714844 296.125 295.28125 296.339844 C 294.847656 296.558594 294.390625 296.648438 293.90625 296.617188 Z M 293.773438 290.945312 C 293.335938 290.9375 292.96875 291.097656 292.675781 291.421875 C 292.347656 291.808594 292.160156 292.253906 292.121094 292.757812 L 295.296875 292.757812 L 295.296875 292.675781 C 295.292969 292.199219 295.144531 291.773438 294.855469 291.394531 C 294.5625 291.078125 294.203125 290.925781 293.773438 290.945312 Z M 293.773438 290.945312 " fill-opacity="1" fill-rule="nonzero"/></svg>