<svg xmlns="http://www.w3.org/2000/svg" viewBox="248 408 1422 242">
  <path fill="#f1f1f1" d="M479,594.3,508,565.36a6.52,6.52,0,0,0,0-9.21L484.6,532.77a6.51,6.51,0,0,0-9.2,0l-21.85,21.85-67.17-49.44a6.51,6.51,0,0,0-7.74,0l-66.45,49.37L290.4,532.77a6.51,6.51,0,0,0-9.2,0l-23.38,23.38a6.52,6.52,0,0,0,0,9.21l29,29a1.39,1.39,0,0,1-1.32,2.32l-7.17-1.82a6.51,6.51,0,0,0-7.9,4.71l-8.12,32.06a6.5,6.5,0,0,0,4.72,7.9l111.15,28.14a18.07,18.07,0,0,0,8.8,0l111.82-28.15a6.51,6.51,0,0,0,4.72-7.9l-8.07-32.06a6.5,6.5,0,0,0-7.9-4.72l-7.17,1.8A1.38,1.38,0,0,1,479,594.3Zm-155.16,9,56.36-41.87a4,4,0,0,1,4.79,0l56.81,41.82a1.83,1.83,0,0,1-.64,3.25l-55.94,14.08a10.89,10.89,0,0,1-5.35,0l-55.39-14A1.83,1.83,0,0,1,323.88,603.28Z"/>
  <path fill="#f1f1f1" d="M382.9,489.19a38.62,38.62,0,1,0-38.62-38.61A38.61,38.61,0,0,0,382.9,489.19Z"/>
  <path fill="#f1f1f1" d="M694.33,518.74l-14.27-1.66c-15.09-1.88-35.75-4.47-35.75-10.52,0-8,16.45-15,35.22-15,20.25,0,35.89,7.88,38.89,19.62l1.08,4.2a5.41,5.41,0,0,0,5.25,4.08h30.34a5.43,5.43,0,0,0,5.31-6.51l-1.38-6.7c-6.73-32.92-38.1-54.2-79.91-54.2-43.78,0-75.56,23.28-75.56,55.36,0,41,47.46,46,72.84,48.62l14.34,1.67c20.16,2.38,33.59,5.29,33.59,11.76,0,9.93-20.06,19-42.09,19-19.57,0-40.9-7.06-44.44-22.84l-1-4.37a5.41,5.41,0,0,0-5.28-4.23H601.21a5.42,5.42,0,0,0-5.34,6.38l1.2,6.59c7.26,40,48.32,58,85.79,58,40.86,0,82.22-20.59,82.22-59.94C765.08,526.78,720.8,521.74,694.33,518.74Z"/>
  <path fill="#f1f1f1" d="M866.78,452c-52,0-91.18,37.77-91.18,87.84s39.2,88.06,91.18,88.06S958,590.07,958,539.87,918.75,452,866.78,452Zm-.21,39.51c28.86,0,50.63,20.87,50.63,48.54s-21.77,48.34-50.63,48.34c-29.09,0-50.21-20.33-50.21-48.34S837.48,491.54,866.57,491.54Z"/>
  <path fill="#f1f1f1" d="M968.75,574.23c0,32.54,22.53,51.2,61.81,51.2h96.79a5.42,5.42,0,0,0,5.42-5.42V460a5.42,5.42,0,0,0-5.42-5.42h-92.21c-35.82,0-58.07,19.22-58.07,50.15,0,12.49,3.64,23,10.27,30.58C975.31,543.57,968.75,557,968.75,574.23Zm49.08-68.09c0-5.11,0-12.1,21.06-12.1h50.3a2.82,2.82,0,0,1,2.82,2.82v19.82a2.82,2.82,0,0,1-2.82,2.82h-50.3C1017.83,519.5,1017.83,511.14,1017.83,506.14Zm74.18,77a2.82,2.82,0,0,1-2.82,2.82h-56.55c-23.14,0-23.14-7.72-23.14-13.35,0-5,0-14.19,23.14-14.19h56.55a2.82,2.82,0,0,1,2.82,2.82Z"/>
  <path fill="#f1f1f1" d="M1295.6,535.26c6.62-7.61,10.26-18.09,10.26-30.58,0-30.93-22.25-50.15-58.06-50.15h-92.21a5.42,5.42,0,0,0-5.42,5.42V620a5.42,5.42,0,0,0,5.42,5.42h96.79c39.28,0,61.81-18.66,61.81-51.2C1314.19,557,1307.62,543.57,1295.6,535.26Zm-51.55-15.76h-50.31a2.82,2.82,0,0,1-2.82-2.82V496.86a2.82,2.82,0,0,1,2.82-2.82h50.31c21.06,0,21.06,7,21.06,12.1S1265.11,519.5,1244.05,519.5Zm-53.13,41.7a2.82,2.82,0,0,1,2.82-2.82h56.55c23.15,0,23.15,9.23,23.15,14.19,0,5.63,0,13.35-23.15,13.35h-56.55a2.82,2.82,0,0,1-2.82-2.82Z"/>
  <path fill="#f1f1f1" d="M1473.84,488.62V460a5.42,5.42,0,0,0-5.42-5.42H1334.81a5.42,5.42,0,0,0-5.42,5.42V620a5.42,5.42,0,0,0,5.42,5.42h133.61a5.42,5.42,0,0,0,5.42-5.42V591.34a5.42,5.42,0,0,0-5.42-5.42H1373a2.82,2.82,0,0,1-2.82-2.82V562a2.82,2.82,0,0,1,2.82-2.82h87.13a5.42,5.42,0,0,0,5.42-5.42V525.13a5.42,5.42,0,0,0-5.42-5.42H1373a2.82,2.82,0,0,1-2.82-2.82v-20A2.82,2.82,0,0,1,1373,494h95.46A5.42,5.42,0,0,0,1473.84,488.62Z"/>
  <path fill="#f1f1f1" d="M1629.57,568a4.23,4.23,0,0,1,1.17-6.38c16.37-9.67,25.65-27,25.65-49.27,0-35.69-23.13-57.86-60.36-57.86H1495.7a5.42,5.42,0,0,0-5.42,5.42V620a5.42,5.42,0,0,0,5.42,5.42h29.92A5.42,5.42,0,0,0,1531,620V575.67a5.41,5.41,0,0,1,5.42-5.42h41.1a5.43,5.43,0,0,1,4.22,2l40.35,50a8.6,8.6,0,0,0,6.7,3.21h30.47a5.42,5.42,0,0,0,5.42-5.42v-7.2a8.26,8.26,0,0,0-2-5.35ZM1531,496.86a2.82,2.82,0,0,1,2.82-2.82h60.71c14,0,21.06,6.17,21.06,18.35s-7.08,18.35-21.06,18.35h-60.71a2.82,2.82,0,0,1-2.82-2.82Z"/>
</svg>
