<svg xmlns="http://www.w3.org/2000/svg" viewBox="360 358 360 364">
  <path fill="#7dcebf" d="M675.37,616.1l40.72-40.72a9.15,9.15,0,0,0,0-13L683.2,529.54a9.15,9.15,0,0,0-13,0l-30.74,30.74L545,490.71a9.15,9.15,0,0,0-10.89,0l-93.5,69.46L410,529.54a9.15,9.15,0,0,0-12.95,0l-32.9,32.89a9.17,9.17,0,0,0,0,13l40.76,40.76a1.94,1.94,0,0,1-1.85,3.25l-10.09-2.55a9.16,9.16,0,0,0-11.12,6.63l-11.41,45.1A9.14,9.14,0,0,0,377,679.69l156.41,39.59a25.27,25.27,0,0,0,12.37,0l157.33-39.6a9.15,9.15,0,0,0,6.65-11.11l-11.36-45.12a9.15,9.15,0,0,0-11.11-6.64l-10.1,2.54A1.94,1.94,0,0,1,675.37,616.1ZM457.06,628.74l79.3-58.92a5.66,5.66,0,0,1,6.73,0L623,628.65a2.58,2.58,0,0,1-.9,4.57L543.43,653a15.39,15.39,0,0,1-7.54,0L458,633.3A2.57,2.57,0,0,1,457.06,628.74Z"/>
  <path fill="#7dcebf" d="M540.1,468.22a54.34,54.34,0,1,0-54.33-54.33A54.33,54.33,0,0,0,540.1,468.22Z"/>
</svg>
