<svg xmlns="http://www.w3.org/2000/svg" xmlns:xlink="http://www.w3.org/1999/xlink" width="442" zoomAndPan="magnify" viewBox="0 0 331.5 58.499998" height="78" preserveAspectRatio="xMidYMid meet" version="1.0"><defs><clipPath id="2dae5ff92e"><path d="M 1.15625 1 L 59 1 L 59 52 L 1.15625 52 Z M 1.15625 1 " clip-rule="nonzero"/></clipPath><clipPath id="1c839fa5fb"><path d="M 307 1 L 329.847656 1 L 329.847656 52 L 307 52 Z M 307 1 " clip-rule="nonzero"/></clipPath></defs><g clip-path="url(#2dae5ff92e)"><path fill="#ffffff" d="M 36.804688 38.625 C 36 39.277344 35.078125 39.757812 34.089844 40.042969 C 32.835938 40.414062 31.53125 40.589844 30.230469 40.570312 C 28.589844 40.625 26.945312 40.375 25.394531 39.839844 C 24.214844 39.445312 23.289062 38.511719 22.921875 37.324219 C 21.398438 32.5625 20.160156 28.707031 19.230469 25.753906 C 18.296875 22.800781 17.53125 20.21875 16.949219 18.003906 L 16.542969 18.003906 C 16.386719 21.195312 16.265625 24.101562 16.183594 26.730469 C 16.101562 29.351562 16.046875 31.917969 16.015625 34.398438 C 15.988281 36.878906 15.933594 39.40625 15.859375 41.953125 C 15.785156 44.5 15.65625 47.3125 15.492188 50.394531 C 14.597656 50.71875 13.664062 50.949219 12.722656 51.085938 C 11.597656 51.269531 10.453125 51.371094 9.308594 51.371094 C 7.398438 51.472656 5.484375 51.078125 3.769531 50.230469 C 2.449219 49.472656 1.785156 48.097656 1.785156 46.097656 C 1.785156 44.417969 1.867188 41.953125 2.023438 38.714844 C 2.183594 35.476562 2.386719 31.917969 2.632812 28.042969 C 2.882812 24.148438 3.132812 20.144531 3.410156 16.046875 C 3.6875 11.953125 3.925781 8.144531 4.136719 4.683594 C 4.894531 3.707031 5.863281 2.929688 6.980469 2.40625 C 8.910156 1.492188 11.035156 1.074219 13.15625 1.1875 C 15.480469 1.074219 17.789062 1.539062 19.894531 2.535156 C 21.574219 3.492188 22.847656 5.035156 23.464844 6.871094 C 23.957031 8.171875 24.492188 9.664062 25.054688 11.335938 C 25.625 13.011719 26.1875 14.746094 26.761719 16.539062 C 27.332031 18.328125 27.886719 20.089844 28.421875 21.851562 L 29.890625 26.601562 L 30.296875 26.601562 C 31.589844 22.054688 32.890625 17.652344 34.191406 13.410156 C 35.492188 9.167969 36.683594 5.605469 37.761719 2.738281 C 38.75 2.238281 39.804688 1.871094 40.890625 1.640625 C 42.292969 1.324219 43.726562 1.175781 45.15625 1.1875 C 47.371094 1.113281 49.578125 1.519531 51.617188 2.367188 C 53.09375 2.921875 54.203125 4.195312 54.542969 5.734375 C 54.753906 6.8125 54.984375 8.503906 55.234375 10.726562 C 55.484375 12.949219 55.734375 15.503906 56 18.316406 C 56.269531 21.132812 56.546875 24.113281 56.8125 27.25 C 57.082031 30.386719 57.339844 33.410156 57.589844 36.296875 C 57.839844 39.1875 58.03125 41.832031 58.199219 44.261719 C 58.363281 46.6875 58.464844 48.523438 58.519531 49.796875 C 57.625 50.320312 56.65625 50.71875 55.640625 50.96875 C 54.375 51.242188 53.074219 51.363281 51.78125 51.335938 C 49.992188 51.390625 48.210938 51.023438 46.578125 50.273438 C 45.175781 49.574219 44.417969 48.199219 44.308594 46.140625 C 43.984375 40.238281 43.78125 34.933594 43.699219 30.226562 C 43.613281 25.523438 43.484375 21.574219 43.328125 18.375 L 42.921875 18.375 C 42.386719 20.484375 41.601562 23.144531 40.570312 26.324219 C 39.515625 29.5625 38.269531 33.640625 36.804688 38.625 Z M 36.804688 38.625 " fill-opacity="1" fill-rule="nonzero"/></g><path fill="#ffffff" d="M 100.238281 40.496094 L 85.535156 40.496094 C 85 42.441406 84.523438 44.25 84.117188 45.929688 C 83.710938 47.609375 83.320312 49.175781 82.941406 50.644531 C 82.160156 50.921875 81.355469 51.152344 80.542969 51.328125 C 79.539062 51.539062 78.523438 51.632812 77.496094 51.613281 C 74.730469 51.613281 72.6875 51.140625 71.367188 50.191406 C 70.078125 49.304688 69.328125 47.820312 69.375 46.253906 C 69.375 45.488281 69.484375 44.722656 69.699219 43.984375 C 69.917969 43.226562 70.160156 42.332031 70.425781 41.296875 C 70.804688 39.839844 71.351562 38.015625 72.015625 35.820312 C 72.679688 33.625 73.4375 31.28125 74.25 28.761719 C 75.0625 26.242188 75.929688 23.679688 76.851562 21.050781 C 77.773438 18.417969 78.632812 15.929688 79.445312 13.578125 C 80.257812 11.222656 81.003906 9.109375 81.679688 7.246094 C 82.351562 5.382812 82.886719 3.953125 83.265625 2.984375 C 84.585938 2.292969 85.988281 1.777344 87.449219 1.445312 C 89.292969 0.957031 91.183594 0.707031 93.097656 0.707031 C 95.542969 0.660156 97.96875 1.066406 100.277344 1.886719 C 102.132812 2.449219 103.617188 3.84375 104.300781 5.660156 C 105.28125 8.429688 106.332031 11.667969 107.46875 15.402344 C 108.601562 19.140625 109.746094 22.996094 110.882812 26.972656 C 112.015625 30.949219 113.125 34.878906 114.214844 38.742188 C 115.304688 42.609375 116.246094 46.039062 117.058594 49.019531 C 116.261719 49.878906 115.246094 50.515625 114.132812 50.867188 C 112.644531 51.355469 111.085938 51.585938 109.515625 51.558594 C 106.867188 51.558594 105.019531 51.125 103.976562 50.257812 C 102.804688 49.148438 102.011719 47.699219 101.699219 46.125 Z M 93.011719 13.457031 L 90.492188 20.835938 C 89.570312 23.539062 88.675781 26.4375 87.816406 29.527344 L 97.886719 29.527344 C 97.128906 26.453125 96.355469 23.539062 95.570312 20.800781 C 94.785156 18.03125 94.09375 15.613281 93.503906 13.417969 Z M 93.011719 13.457031 " fill-opacity="1" fill-rule="nonzero"/><path fill="#ffffff" d="M 169.886719 50.765625 C 168.207031 51.199219 166.464844 51.410156 164.730469 51.371094 C 162.800781 51.371094 160.878906 51.058594 159.042969 50.449219 C 157.058594 49.667969 155.480469 48.117188 154.660156 46.152344 L 146.621094 29.75 C 145.808594 28.070312 145.078125 26.492188 144.421875 24.996094 C 143.769531 23.503906 143.074219 21.785156 142.308594 19.839844 L 141.746094 20.007812 C 142.015625 23.410156 142.160156 26.566406 142.191406 29.460938 C 142.21875 32.359375 142.234375 35.125 142.234375 37.765625 L 142.234375 50.679688 C 141.636719 50.792969 140.742188 50.929688 139.550781 51.085938 C 138.324219 51.253906 137.09375 51.335938 135.859375 51.335938 C 133.089844 51.335938 131.1875 50.855469 130.136719 49.914062 C 129.082031 48.972656 128.546875 47.277344 128.546875 44.839844 L 128.546875 4.039062 C 129.425781 2.875 130.652344 2.015625 132.046875 1.601562 C 133.671875 1.058594 135.367188 0.78125 137.078125 0.789062 C 139.023438 0.78125 140.960938 1.09375 142.808594 1.710938 C 144.773438 2.488281 146.34375 4.027344 147.144531 5.976562 L 155.269531 22.378906 C 156.082031 24.054688 156.820312 25.644531 157.464844 27.128906 C 158.109375 28.613281 158.820312 30.339844 159.578125 32.285156 L 159.902344 32.203125 C 159.691406 29.601562 159.558594 27.15625 159.53125 24.820312 C 159.503906 22.488281 159.53125 20.320312 159.53125 18.207031 L 159.53125 1.277344 C 160.132812 1.167969 161.019531 1.039062 162.210938 0.871094 C 163.4375 0.707031 164.664062 0.625 165.902344 0.632812 C 168.671875 0.632812 170.570312 1.105469 171.632812 2.054688 C 172.695312 3.003906 173.210938 4.691406 173.210938 7.128906 L 173.210938 49.019531 C 172.269531 49.878906 171.125 50.476562 169.886719 50.765625 Z M 169.886719 50.765625 " fill-opacity="1" fill-rule="nonzero"/><path fill="#ffffff" d="M 237.589844 26.039062 C 237.652344 29.878906 237 33.695312 235.640625 37.285156 C 234.460938 40.386719 232.613281 43.179688 230.234375 45.488281 C 227.890625 47.699219 225.109375 49.398438 222.074219 50.476562 C 215.4375 52.757812 208.238281 52.757812 201.601562 50.476562 C 198.566406 49.40625 195.796875 47.683594 193.480469 45.441406 C 191.136719 43.117188 189.308594 40.320312 188.125 37.238281 C 186.761719 33.667969 186.097656 29.867188 186.171875 26.039062 C 186.097656 22.210938 186.777344 18.410156 188.164062 14.839844 C 190.546875 8.6875 195.5 3.878906 201.730469 1.683594 C 208.285156 -0.59375 215.402344 -0.59375 221.953125 1.683594 C 224.992188 2.773438 227.761719 4.472656 230.113281 6.675781 C 232.503906 8.972656 234.378906 11.757812 235.597656 14.839844 C 236.980469 18.410156 237.664062 22.210938 237.589844 26.039062 Z M 222.96875 26.039062 C 222.96875 21.167969 221.964844 17.515625 219.960938 15.082031 C 216.027344 10.632812 209.234375 10.210938 204.785156 14.128906 C 204.453125 14.425781 204.132812 14.738281 203.835938 15.082031 C 201.804688 17.488281 200.789062 21.152344 200.789062 26.078125 C 200.789062 31.003906 201.796875 34.691406 203.800781 37.148438 C 207.722656 41.613281 214.523438 42.046875 218.992188 38.117188 C 219.332031 37.8125 219.664062 37.488281 219.960938 37.148438 C 221.964844 34.664062 222.96875 30.964844 222.96875 26.039062 Z M 222.96875 26.039062 " fill-opacity="1" fill-rule="nonzero"/><path fill="#ffffff" d="M 299.558594 26.039062 C 299.632812 29.878906 298.96875 33.695312 297.613281 37.285156 C 296.429688 40.375 294.585938 43.179688 292.210938 45.488281 C 289.867188 47.699219 287.082031 49.398438 284.042969 50.476562 C 277.417969 52.757812 270.207031 52.757812 263.582031 50.476562 C 260.542969 49.40625 257.765625 47.691406 255.457031 45.441406 C 253.105469 43.117188 251.277344 40.320312 250.097656 37.238281 C 248.738281 33.667969 248.074219 29.859375 248.148438 26.039062 C 248.074219 22.210938 248.75 18.410156 250.132812 14.839844 C 252.515625 8.6875 257.472656 3.878906 263.699219 1.683594 C 270.253906 -0.59375 277.371094 -0.59375 283.921875 1.683594 C 286.960938 2.773438 289.738281 4.472656 292.09375 6.675781 C 294.484375 8.972656 296.355469 11.757812 297.566406 14.839844 C 298.949219 18.410156 299.632812 22.210938 299.558594 26.039062 Z M 284.9375 26.039062 C 284.9375 21.167969 283.941406 17.515625 281.9375 15.082031 C 278.007812 10.632812 271.214844 10.210938 266.765625 14.128906 C 266.433594 14.425781 266.109375 14.738281 265.816406 15.082031 C 263.785156 17.488281 262.769531 21.152344 262.769531 26.078125 C 262.769531 31.003906 263.765625 34.691406 265.769531 37.148438 C 269.699219 41.613281 276.503906 42.046875 280.96875 38.117188 C 281.3125 37.8125 281.632812 37.488281 281.9375 37.148438 C 283.933594 34.664062 284.929688 30.964844 284.9375 26.039062 Z M 284.9375 26.039062 " fill-opacity="1" fill-rule="nonzero"/><g clip-path="url(#1c839fa5fb)"><path fill="#ffffff" d="M 340.816406 49.09375 C 339.765625 49.898438 338.5625 50.476562 337.289062 50.800781 C 335.59375 51.300781 333.820312 51.546875 332.046875 51.53125 C 330.046875 51.585938 328.0625 51.234375 326.195312 50.515625 C 324.785156 50.027344 323.601562 49.046875 322.875 47.746094 C 322.253906 46.519531 321.527344 44.90625 320.675781 42.914062 C 319.828125 40.921875 318.921875 38.714844 317.953125 36.296875 C 317.011719 33.835938 316.035156 31.253906 315.027344 28.539062 C 314.023438 25.828125 313.0625 23.058594 312.148438 20.238281 C 311.226562 17.421875 310.359375 14.65625 309.546875 11.933594 C 308.734375 9.210938 308.03125 6.683594 307.441406 4.304688 C 308.402344 3.417969 309.507812 2.707031 310.726562 2.230469 C 312.183594 1.601562 313.753906 1.289062 315.34375 1.304688 C 317.066406 1.234375 318.785156 1.675781 320.261719 2.570312 C 321.527344 3.410156 322.46875 4.960938 323.03125 7.230469 C 324.496094 12.535156 325.976562 17.609375 327.460938 22.453125 C 328.945312 27.292969 330.507812 32.339844 332.132812 37.609375 L 332.609375 37.609375 C 334.070312 32.515625 335.574219 26.980469 337.113281 21.003906 C 338.65625 15.023438 340.132812 9.046875 341.546875 3.058594 C 342.542969 2.5625 343.59375 2.15625 344.664062 1.839844 C 345.894531 1.5 347.175781 1.335938 348.449219 1.351562 C 350.25 1.296875 352.019531 1.757812 353.5625 2.691406 C 355.019531 3.675781 355.824219 5.367188 355.675781 7.117188 C 355.585938 8.878906 355.296875 10.613281 354.816406 12.3125 C 354.253906 14.582031 353.527344 17.148438 352.628906 19.988281 C 351.734375 22.828125 350.730469 25.789062 349.621094 28.871094 C 348.515625 31.953125 347.40625 34.867188 346.289062 37.597656 C 345.171875 40.328125 344.140625 42.746094 343.171875 44.832031 C 342.503906 46.316406 341.722656 47.738281 340.816406 49.09375 Z M 340.816406 49.09375 " fill-opacity="1" fill-rule="nonzero"/></g></svg>