<svg xmlns="http://www.w3.org/2000/svg" xmlns:xlink="http://www.w3.org/1999/xlink" width="595" zoomAndPan="magnify" viewBox="0 0 446.25 446.249989" height="595" preserveAspectRatio="xMidYMid meet" version="1.0"><path fill="#ffffff" d="M 88.625 141.816406 C 88.625 141.816406 97.363281 121.410156 91.199219 115.210938 C 87.296875 111.253906 74.960938 116.628906 88.625 141.816406 Z M 88.625 141.816406 " fill-opacity="1" fill-rule="nonzero"/><path fill="#ffffff" d="M 102.585938 147.746094 C 102.585938 147.746094 121.0625 135.382812 119.230469 126.824219 C 118.09375 121.410156 104.828125 119.210938 102.585938 147.746094 Z M 102.585938 147.746094 " fill-opacity="1" fill-rule="nonzero"/><path fill="#ffffff" d="M 75.203125 147.746094 C 75.203125 147.746094 56.769531 135.382812 58.558594 126.824219 C 59.703125 121.410156 72.96875 119.210938 75.203125 147.746094 Z M 75.203125 147.746094 " fill-opacity="1" fill-rule="nonzero"/><path fill="#ffffff" d="M 67.675781 253.519531 L 67.621094 253.519531 L 67.675781 253.554688 Z M 67.675781 253.519531 " fill-opacity="1" fill-rule="nonzero"/><path fill="#ffffff" d="M 86.707031 158.164062 C 88.9375 158.054688 91.164062 158.113281 93.386719 158.332031 C 95.609375 158.550781 97.800781 158.929688 99.96875 159.46875 C 102.132812 160.007812 104.25 160.699219 106.316406 161.550781 C 108.378906 162.398438 110.371094 163.390625 112.289062 164.53125 C 114.210938 165.671875 116.035156 166.945312 117.769531 168.351562 C 119.503906 169.757812 121.125 171.285156 122.636719 172.929688 C 124.144531 174.574219 125.527344 176.316406 126.78125 178.164062 C 128.039062 180.011719 129.152344 181.9375 130.125 183.945312 L 130.125 151.289062 L 47.664062 151.289062 L 47.664062 183.945312 C 48.558594 182.101562 49.570312 180.324219 50.703125 178.617188 C 51.832031 176.910156 53.074219 175.285156 54.421875 173.742188 C 55.773438 172.199219 57.21875 170.753906 58.765625 169.40625 C 60.308594 168.058594 61.933594 166.820312 63.644531 165.691406 C 65.355469 164.5625 67.132812 163.550781 68.976562 162.660156 C 70.824219 161.769531 72.722656 161.007812 74.667969 160.371094 C 76.617188 159.738281 78.597656 159.234375 80.613281 158.863281 C 82.628906 158.492188 84.660156 158.261719 86.707031 158.164062 Z M 86.707031 158.164062 " fill-opacity="1" fill-rule="nonzero"/><path fill="#ffffff" d="M 125.484375 231.429688 C 122.972656 235.582031 118.40625 242.644531 114.164062 246.769531 C 113.585938 247.515625 112.988281 248.234375 112.375 248.914062 C 107.40625 254.453125 101.667969 259.019531 95.15625 262.617188 C 98.921875 262.679688 102.582031 262.085938 106.132812 260.839844 C 106.132812 260.839844 105.980469 272.175781 103.582031 276.660156 C 103.582031 276.660156 77.015625 276.839844 70.042969 268.578125 C 70.042969 268.578125 66.5 262.839844 67.621094 253.5 C 89.613281 250.953125 102.992188 240.023438 109.484375 233 C 110.8125 231.078125 112.144531 229.339844 113.15625 228.074219 C 113.328125 227.882812 113.488281 227.6875 113.652344 227.496094 L 113.652344 227.292969 L 113.953125 227.128906 C 115.40625 225.367188 116.6875 223.484375 117.796875 221.484375 C 118.902344 219.484375 119.8125 217.398438 120.527344 215.230469 C 121.246094 213.058594 121.753906 210.839844 122.058594 208.574219 C 122.359375 206.308594 122.449219 204.035156 122.328125 201.753906 C 121.386719 182.09375 105.628906 166.867188 87.144531 167.75 C 68.660156 168.636719 54.429688 185.300781 55.371094 204.964844 C 55.464844 207.117188 55.746094 209.25 56.210938 211.355469 C 56.679688 213.460938 57.324219 215.507812 58.148438 217.503906 C 58.976562 219.496094 59.96875 221.402344 61.128906 223.21875 C 62.289062 225.039062 63.597656 226.742188 65.054688 228.332031 L 65.195312 228.457031 C 65.699219 228.996094 66.226562 229.507812 66.757812 230.019531 C 66.757812 230.019531 76.800781 240.785156 91.75 237.484375 C 106.703125 234.183594 107.960938 227.371094 107.960938 227.371094 C 107.960938 227.371094 107.191406 241.566406 84.792969 245.535156 C 70.722656 248.035156 58.582031 238.246094 58.582031 238.246094 C 57.847656 237.59375 57.136719 236.929688 56.441406 236.246094 L 56.257812 236.078125 C 52.710938 232.460938 49.847656 228.363281 47.664062 223.792969 L 47.664062 296.285156 L 130.125 296.285156 L 130.125 223.765625 C 128.832031 226.472656 127.28125 229.027344 125.484375 231.429688 Z M 88.714844 289.421875 C 77.859375 288.738281 79.554688 278.789062 79.554688 278.789062 C 79.554688 278.789062 95.226562 284.046875 102.128906 281.820312 C 102.140625 281.828125 99.574219 290.109375 88.714844 289.421875 Z M 88.714844 289.421875 " fill-opacity="1" fill-rule="nonzero"/><path fill="#ffffff" d="M 142.597656 151.191406 L 155.050781 151.191406 C 157.609375 151.191406 158.414062 152.074219 158.414062 154.558594 L 158.414062 194.054688 L 177.71875 194.054688 C 180.203125 194.054688 181.089844 194.855469 181.089844 197.421875 L 181.089844 204.714844 C 181.089844 207.199219 180.203125 208.074219 177.71875 208.074219 L 142.597656 208.074219 " fill-opacity="1" fill-rule="nonzero"/><path fill="#ffffff" d="M 186.347656 204.875 L 186.347656 154.371094 C 186.347656 151.972656 187.148438 151.167969 189.558594 151.167969 L 198.929688 151.167969 C 201.332031 151.167969 202.132812 151.972656 202.132812 154.371094 L 202.132812 204.875 C 202.132812 207.273438 201.332031 208.074219 198.929688 208.074219 L 189.550781 208.074219 C 187.148438 208.074219 186.347656 207.273438 186.347656 204.875 Z M 186.347656 204.875 " fill-opacity="1" fill-rule="nonzero"/><path fill="#ffffff" d="M 210.34375 186.609375 L 210.34375 172.664062 C 210.34375 159.484375 218.769531 151.289062 233.867188 151.289062 C 245.660156 151.289062 253.015625 156.128906 256.164062 164.695312 C 257 166.914062 256.390625 167.988281 254.171875 168.84375 L 245.972656 171.757812 C 243.59375 172.449219 242.679688 172.0625 241.820312 169.683594 C 240.4375 166.222656 238.21875 164.699219 233.851562 164.699219 C 227.800781 164.699219 225.425781 167.308594 225.425781 172.59375 L 225.425781 186.6875 C 225.425781 191.976562 227.800781 194.578125 233.851562 194.578125 C 238.984375 194.578125 242.152344 192.664062 242.152344 189.371094 L 242.152344 187.839844 L 234.785156 187.839844 C 232.414062 187.839844 231.570312 186.996094 231.570312 184.625 L 231.570312 178.875 C 231.570312 176.421875 232.414062 175.582031 234.785156 175.582031 L 254.15625 175.582031 C 256.527344 175.582031 257.371094 176.421875 257.371094 178.875 L 257.371094 188.988281 C 257.371094 199.789062 248.941406 207.984375 233.851562 207.984375 C 218.765625 207.984375 210.34375 199.78125 210.34375 186.609375 Z M 210.34375 186.609375 " fill-opacity="1" fill-rule="nonzero"/><path fill="#ffffff" d="M 265.203125 204.714844 L 265.203125 154.558594 C 265.203125 152.074219 266.007812 151.191406 268.566406 151.191406 L 277.621094 151.191406 C 280.1875 151.191406 280.992188 152.074219 280.992188 154.558594 L 280.992188 172.253906 L 296.527344 172.253906 L 296.527344 154.558594 C 296.527344 152.074219 297.414062 151.191406 299.988281 151.191406 L 309.035156 151.191406 C 311.519531 151.191406 312.398438 152.074219 312.398438 154.558594 L 312.398438 204.714844 C 312.398438 207.199219 311.519531 208.074219 309.035156 208.074219 L 299.980469 208.074219 C 297.414062 208.074219 296.519531 207.199219 296.519531 204.714844 L 296.519531 186.203125 L 280.992188 186.203125 L 280.992188 204.714844 C 280.992188 207.199219 280.1875 208.074219 277.621094 208.074219 L 268.566406 208.074219 C 266.007812 208.074219 265.203125 207.199219 265.203125 204.714844 Z M 265.203125 204.714844 " fill-opacity="1" fill-rule="nonzero"/><path fill="#ffffff" d="M 333 204.714844 L 333 165.128906 L 321.058594 165.128906 C 318.492188 165.128906 317.691406 164.335938 317.691406 161.769531 L 317.691406 154.558594 C 317.691406 152.074219 318.492188 151.191406 321.058594 151.191406 L 360.71875 151.191406 C 363.277344 151.191406 364.082031 152.074219 364.082031 154.558594 L 364.082031 161.769531 C 364.082031 164.335938 363.277344 165.128906 360.71875 165.128906 L 348.777344 165.128906 L 348.777344 204.714844 C 348.777344 207.199219 347.976562 208.074219 345.417969 208.074219 L 336.363281 208.074219 C 333.792969 208.074219 333 207.199219 333 204.714844 Z M 333 204.714844 " fill-opacity="1" fill-rule="nonzero"/><path fill="#ffffff" d="M 142.597656 220.542969 L 169.433594 220.542969 C 180.5 220.542969 187.144531 225.910156 187.144531 235.683594 C 187.144531 241.054688 185.460938 244.679688 181.375 247.445312 L 181.375 247.765625 C 186.5 250.011719 189.46875 254.578125 189.46875 261.542969 C 189.46875 271.878906 181.054688 277.40625 169.757812 277.40625 L 142.597656 277.40625 M 171.113281 237.828125 C 171.113281 234.703125 169.355469 233.339844 166.152344 233.339844 L 158.378906 233.339844 L 158.378906 242.152344 L 166.152344 242.152344 C 169.355469 242.175781 171.113281 240.976562 171.113281 237.851562 Z M 172.878906 259.703125 C 172.878906 256.5 171.113281 255.054688 167.667969 255.054688 L 158.378906 255.054688 L 158.378906 264.511719 L 167.667969 264.511719 C 171.113281 264.53125 172.878906 263.085938 172.878906 259.726562 Z M 172.878906 259.703125 " fill-opacity="1" fill-rule="nonzero"/><path fill="#ffffff" d="M 195.277344 255.960938 L 195.277344 241.996094 C 195.277344 228.765625 203.65625 220.550781 218.882812 220.550781 C 234.109375 220.550781 242.480469 228.773438 242.480469 241.996094 L 242.480469 255.960938 C 242.480469 269.183594 234.023438 277.40625 218.882812 277.40625 C 203.738281 277.40625 195.277344 269.203125 195.277344 255.960938 Z M 227.257812 256.578125 L 227.257812 241.359375 C 227.257812 236.515625 224.179688 233.976562 218.882812 233.976562 C 213.582031 233.976562 210.421875 236.515625 210.421875 241.359375 L 210.421875 256.578125 C 210.421875 261.421875 213.5 263.957031 218.882812 263.957031 C 224.265625 263.957031 227.257812 261.441406 227.257812 256.597656 Z M 227.257812 256.578125 " fill-opacity="1" fill-rule="nonzero"/><path fill="#ffffff" d="M 244.6875 274.066406 L 261.191406 248.429688 L 245.488281 223.753906 C 244.292969 221.988281 244.851562 220.542969 247.09375 220.542969 L 256.652344 220.542969 C 260.742188 220.542969 261.78125 220.867188 263.300781 223.351562 L 270.488281 235.769531 L 277.621094 223.351562 C 279.144531 220.703125 280.179688 220.542969 283.785156 220.542969 L 294.042969 220.542969 C 296.285156 220.542969 296.769531 221.988281 295.648438 223.753906 L 279.78125 248.429688 L 296.445312 274.066406 C 297.730469 275.828125 297.246094 277.429688 294.765625 277.429688 L 284.503906 277.429688 C 280.355469 277.429688 279.378906 277.191406 277.855469 274.46875 L 270.246094 261.246094 L 262.796875 274.46875 C 261.273438 276.949219 260.554688 277.429688 256.226562 277.429688 L 246.375 277.429688 C 243.964844 277.40625 243.40625 276.023438 244.6875 274.066406 Z M 244.6875 274.066406 " fill-opacity="1" fill-rule="nonzero"/><path fill="#ffffff" d="M 145.207031 295.035156 L 146.777344 290.191406 L 147.882812 290.191406 L 145.609375 296.519531 L 144.785156 296.519531 L 142.507812 290.171875 L 143.617188 290.171875 Z M 145.207031 295.035156 " fill-opacity="1" fill-rule="nonzero"/><path fill="#ffffff" d="M 149.710938 293.277344 C 149.703125 292.691406 149.824219 292.132812 150.078125 291.601562 C 150.304688 291.125 150.644531 290.742188 151.09375 290.460938 C 151.550781 290.179688 152.046875 290.046875 152.582031 290.054688 C 153.414062 290.027344 154.105469 290.328125 154.65625 290.953125 C 155.230469 291.640625 155.496094 292.4375 155.453125 293.332031 L 155.453125 293.410156 C 155.460938 293.988281 155.34375 294.542969 155.097656 295.070312 C 154.875 295.550781 154.539062 295.929688 154.089844 296.210938 C 153.625 296.496094 153.121094 296.632812 152.574219 296.617188 C 151.742188 296.644531 151.050781 296.347656 150.5 295.726562 C 149.925781 295.039062 149.65625 294.246094 149.695312 293.351562 Z M 150.796875 293.410156 C 150.765625 294.027344 150.929688 294.589844 151.289062 295.097656 C 151.445312 295.300781 151.636719 295.457031 151.867188 295.570312 C 152.097656 295.683594 152.339844 295.742188 152.597656 295.742188 C 152.855469 295.742188 153.097656 295.683594 153.328125 295.570312 C 153.558594 295.457031 153.753906 295.300781 153.910156 295.097656 C 154.269531 294.546875 154.433594 293.941406 154.394531 293.285156 C 154.421875 292.664062 154.253906 292.101562 153.894531 291.597656 C 153.570312 291.152344 153.132812 290.9375 152.582031 290.953125 C 152.039062 290.9375 151.605469 291.148438 151.289062 291.589844 C 150.925781 292.140625 150.765625 292.75 150.808594 293.410156 Z M 150.796875 293.410156 " fill-opacity="1" fill-rule="nonzero"/><path fill="#ffffff" d="M 159.464844 288.636719 L 159.464844 290.171875 L 160.648438 290.171875 L 160.648438 291.007812 L 159.464844 291.007812 L 159.464844 294.9375 C 159.449219 295.148438 159.5 295.339844 159.625 295.511719 C 159.773438 295.65625 159.953125 295.71875 160.164062 295.699219 C 160.335938 295.691406 160.507812 295.667969 160.675781 295.628906 L 160.675781 296.507812 C 160.402344 296.582031 160.125 296.617188 159.84375 296.617188 C 159.410156 296.652344 159.046875 296.503906 158.75 296.183594 C 158.472656 295.8125 158.347656 295.398438 158.378906 294.9375 L 158.378906 291.007812 L 157.230469 291.007812 L 157.230469 290.171875 L 158.378906 290.171875 L 158.378906 288.636719 Z M 159.464844 288.636719 " fill-opacity="1" fill-rule="nonzero"/><path fill="#ffffff" d="M 166.132812 291.144531 C 165.957031 291.117188 165.777344 291.105469 165.601562 291.105469 C 165.285156 291.078125 164.996094 291.148438 164.726562 291.316406 C 164.460938 291.484375 164.269531 291.714844 164.15625 292.011719 L 164.15625 296.5 L 163.074219 296.5 L 163.074219 290.171875 L 164.125 290.171875 L 164.125 290.902344 C 164.28125 290.632812 164.492188 290.421875 164.761719 290.269531 C 165.035156 290.117188 165.324219 290.042969 165.636719 290.054688 C 165.800781 290.042969 165.960938 290.070312 166.113281 290.136719 Z M 166.132812 291.144531 " fill-opacity="1" fill-rule="nonzero"/><path fill="#ffffff" d="M 170.808594 296.617188 C 169.992188 296.644531 169.300781 296.363281 168.734375 295.773438 C 168.152344 295.132812 167.878906 294.378906 167.925781 293.511719 L 167.925781 293.316406 C 167.914062 292.730469 168.035156 292.167969 168.285156 291.636719 C 168.511719 291.15625 168.847656 290.769531 169.292969 290.480469 C 169.710938 290.199219 170.175781 290.058594 170.679688 290.058594 C 171.453125 290.015625 172.09375 290.289062 172.601562 290.875 C 173.117188 291.570312 173.347656 292.34375 173.292969 293.207031 L 173.292969 293.65625 L 169.003906 293.65625 C 168.988281 294.230469 169.171875 294.734375 169.550781 295.164062 C 169.902344 295.566406 170.34375 295.761719 170.878906 295.746094 C 171.226562 295.753906 171.550781 295.675781 171.855469 295.511719 C 172.125 295.347656 172.355469 295.140625 172.546875 294.890625 L 173.238281 295.40625 C 172.972656 295.816406 172.625 296.128906 172.1875 296.34375 C 171.753906 296.5625 171.292969 296.652344 170.808594 296.617188 Z M 170.671875 290.945312 C 170.230469 290.9375 169.867188 291.097656 169.570312 291.421875 C 169.242188 291.808594 169.058594 292.253906 169.023438 292.757812 L 172.191406 292.757812 L 172.191406 292.675781 C 172.191406 292.199219 172.046875 291.769531 171.75 291.394531 C 171.460938 291.078125 171.101562 290.925781 170.671875 290.945312 Z M 170.671875 290.945312 " fill-opacity="1" fill-rule="nonzero"/><path fill="#ffffff" d="M 180.839844 290.171875 L 180.839844 290.863281 C 181.335938 290.28125 181.960938 290.007812 182.722656 290.039062 C 183.101562 290.003906 183.453125 290.078125 183.785156 290.261719 C 184.117188 290.449219 184.363281 290.714844 184.527344 291.054688 C 184.757812 290.726562 185.050781 290.472656 185.410156 290.292969 C 185.765625 290.113281 186.148438 290.027344 186.546875 290.039062 C 187.929688 290.039062 188.625 290.78125 188.664062 292.246094 L 188.664062 296.488281 L 187.613281 296.488281 L 187.613281 292.335938 C 187.640625 291.957031 187.539062 291.621094 187.300781 291.324219 C 187.003906 291.0625 186.652344 290.949219 186.257812 290.988281 C 185.875 290.96875 185.542969 291.089844 185.261719 291.347656 C 184.976562 291.605469 184.820312 291.929688 184.796875 292.316406 L 184.796875 296.515625 L 183.703125 296.515625 L 183.703125 292.363281 C 183.734375 292.175781 183.71875 291.992188 183.660156 291.8125 C 183.601562 291.628906 183.507812 291.472656 183.375 291.335938 C 183.242188 291.199219 183.085938 291.101562 182.90625 291.039062 C 182.726562 290.976562 182.542969 290.957031 182.355469 290.980469 C 182.039062 290.957031 181.746094 291.027344 181.476562 291.195312 C 181.207031 291.363281 181.015625 291.59375 180.894531 291.886719 L 180.894531 296.507812 L 179.816406 296.507812 L 179.816406 290.175781 Z M 180.839844 290.171875 " fill-opacity="1" fill-rule="nonzero"/><path fill="#ffffff" d="M 195.402344 296.5 C 195.308594 296.277344 195.257812 296.046875 195.242188 295.808594 C 194.761719 296.339844 194.160156 296.601562 193.445312 296.589844 C 192.863281 296.613281 192.351562 296.4375 191.910156 296.066406 C 191.496094 295.710938 191.296875 295.265625 191.308594 294.722656 C 191.292969 294.417969 191.351562 294.128906 191.488281 293.859375 C 191.621094 293.585938 191.8125 293.359375 192.0625 293.1875 C 192.707031 292.773438 193.414062 292.59375 194.179688 292.640625 L 195.230469 292.640625 L 195.230469 292.140625 C 195.25 291.789062 195.136719 291.488281 194.890625 291.234375 C 194.601562 290.984375 194.269531 290.871094 193.886719 290.898438 C 193.53125 290.882812 193.210938 290.980469 192.917969 291.1875 C 192.671875 291.351562 192.539062 291.582031 192.523438 291.878906 L 191.4375 291.878906 C 191.445312 291.535156 191.554688 291.226562 191.769531 290.960938 C 192.019531 290.652344 192.324219 290.421875 192.683594 290.265625 C 193.089844 290.09375 193.515625 290.007812 193.957031 290.011719 C 194.597656 289.976562 195.164062 290.15625 195.664062 290.558594 C 196.109375 290.960938 196.324219 291.464844 196.308594 292.066406 L 196.308594 294.980469 C 196.289062 295.457031 196.367188 295.917969 196.535156 296.363281 L 196.535156 296.453125 Z M 193.605469 295.675781 C 193.949219 295.675781 194.269531 295.589844 194.566406 295.414062 C 194.871094 295.257812 195.101562 295.027344 195.257812 294.722656 L 195.257812 293.421875 L 194.390625 293.421875 C 193.070312 293.421875 192.40625 293.808594 192.40625 294.589844 C 192.390625 294.910156 192.503906 295.175781 192.746094 295.386719 C 192.996094 295.589844 193.28125 295.6875 193.605469 295.675781 Z M 193.605469 295.675781 " fill-opacity="1" fill-rule="nonzero"/><path fill="#ffffff" d="M 202.230469 291.144531 C 202.054688 291.117188 201.875 291.101562 201.699219 291.105469 C 201.382812 291.078125 201.09375 291.148438 200.824219 291.316406 C 200.558594 291.484375 200.367188 291.714844 200.253906 292.011719 L 200.253906 296.5 L 199.171875 296.5 L 199.171875 290.171875 L 200.222656 290.171875 L 200.222656 290.902344 C 200.378906 290.632812 200.589844 290.421875 200.859375 290.269531 C 201.132812 290.117188 201.421875 290.042969 201.734375 290.054688 C 201.898438 290.042969 202.058594 290.070312 202.210938 290.136719 Z M 202.230469 291.144531 " fill-opacity="1" fill-rule="nonzero"/><path fill="#ffffff" d="M 204.015625 293.316406 C 203.96875 292.449219 204.199219 291.664062 204.707031 290.960938 C 204.925781 290.695312 205.191406 290.484375 205.503906 290.332031 C 205.8125 290.179688 206.140625 290.097656 206.484375 290.089844 C 206.832031 290.078125 207.164062 290.136719 207.484375 290.269531 C 207.800781 290.398438 208.082031 290.589844 208.316406 290.839844 L 208.367188 290.207031 L 209.363281 290.207031 L 209.363281 298.96875 L 208.277344 298.96875 L 208.277344 295.953125 C 207.800781 296.449219 207.21875 296.679688 206.535156 296.644531 C 206.175781 296.65625 205.832031 296.585938 205.507812 296.425781 C 205.1875 296.269531 204.917969 296.042969 204.707031 295.753906 C 204.203125 295.042969 203.972656 294.253906 204.015625 293.386719 Z M 205.101562 293.441406 C 205.066406 294.0625 205.21875 294.632812 205.558594 295.152344 C 205.859375 295.582031 206.273438 295.789062 206.796875 295.773438 C 207.101562 295.78125 207.390625 295.707031 207.65625 295.554688 C 207.917969 295.398438 208.125 295.1875 208.269531 294.917969 L 208.269531 291.816406 C 208.125 291.550781 207.917969 291.34375 207.65625 291.195312 C 207.394531 291.042969 207.113281 290.972656 206.808594 290.980469 C 206.28125 290.964844 205.863281 291.171875 205.558594 291.601562 C 205.214844 292.15625 205.0625 292.757812 205.101562 293.410156 Z M 205.101562 293.441406 " fill-opacity="1" fill-rule="nonzero"/><path fill="#ffffff" d="M 216.164062 295.878906 C 215.664062 296.425781 215.046875 296.671875 214.308594 296.617188 C 213.703125 296.660156 213.191406 296.464844 212.765625 296.03125 C 212.367188 295.519531 212.183594 294.941406 212.226562 294.292969 L 212.226562 290.144531 L 213.3125 290.144531 L 213.3125 294.230469 C 213.3125 295.191406 213.699219 295.671875 214.480469 295.671875 C 214.828125 295.710938 215.152344 295.644531 215.457031 295.476562 C 215.761719 295.304688 215.988281 295.066406 216.136719 294.75 L 216.136719 290.144531 L 217.222656 290.144531 L 217.222656 296.472656 L 216.183594 296.472656 Z M 216.164062 295.878906 " fill-opacity="1" fill-rule="nonzero"/><path fill="#ffffff" d="M 222.652344 296.617188 C 221.835938 296.644531 221.144531 296.363281 220.578125 295.773438 C 219.992188 295.132812 219.722656 294.378906 219.765625 293.511719 L 219.765625 293.316406 C 219.757812 292.730469 219.878906 292.171875 220.128906 291.636719 C 220.351562 291.15625 220.6875 290.769531 221.136719 290.480469 C 221.554688 290.203125 222.015625 290.0625 222.519531 290.058594 C 223.296875 290.015625 223.9375 290.289062 224.445312 290.875 C 224.960938 291.570312 225.191406 292.34375 225.136719 293.207031 L 225.136719 293.65625 L 220.847656 293.65625 C 220.832031 294.230469 221.015625 294.734375 221.394531 295.164062 C 221.746094 295.566406 222.1875 295.761719 222.722656 295.746094 C 223.066406 295.753906 223.390625 295.675781 223.695312 295.511719 C 223.96875 295.347656 224.199219 295.140625 224.386719 294.890625 L 225.082031 295.40625 C 224.816406 295.816406 224.464844 296.128906 224.03125 296.34375 C 223.597656 296.5625 223.136719 296.652344 222.652344 296.617188 Z M 222.515625 290.945312 C 222.074219 290.9375 221.707031 291.097656 221.414062 291.421875 C 221.085938 291.808594 220.902344 292.253906 220.867188 292.757812 L 224.035156 292.757812 L 224.035156 292.675781 C 224.035156 292.199219 223.886719 291.769531 223.59375 291.394531 C 223.304688 291.078125 222.941406 290.925781 222.515625 290.945312 Z M 222.515625 290.945312 " fill-opacity="1" fill-rule="nonzero"/><path fill="#ffffff" d="M 234.296875 296.617188 C 233.480469 296.644531 232.785156 296.363281 232.21875 295.773438 C 231.636719 295.132812 231.367188 294.378906 231.410156 293.511719 L 231.410156 293.316406 C 231.398438 292.730469 231.519531 292.167969 231.769531 291.636719 C 231.996094 291.15625 232.332031 290.769531 232.78125 290.480469 C 233.199219 290.199219 233.660156 290.058594 234.164062 290.058594 C 234.9375 290.015625 235.578125 290.289062 236.085938 290.875 C 236.605469 291.570312 236.835938 292.34375 236.777344 293.207031 L 236.777344 293.65625 L 232.488281 293.65625 C 232.476562 294.230469 232.65625 294.734375 233.035156 295.164062 C 233.386719 295.566406 233.832031 295.761719 234.363281 295.746094 C 234.710938 295.753906 235.035156 295.675781 235.339844 295.511719 C 235.609375 295.347656 235.839844 295.140625 236.03125 294.890625 L 236.722656 295.40625 C 236.457031 295.816406 236.109375 296.128906 235.675781 296.34375 C 235.238281 296.5625 234.78125 296.652344 234.296875 296.617188 Z M 234.15625 290.945312 C 233.71875 290.9375 233.351562 291.097656 233.054688 291.421875 C 232.726562 291.808594 232.546875 292.253906 232.511719 292.757812 L 235.679688 292.757812 L 235.679688 292.675781 C 235.679688 292.199219 235.53125 291.769531 235.234375 291.394531 C 234.945312 291.078125 234.585938 290.925781 234.15625 290.945312 Z M 234.15625 290.945312 " fill-opacity="1" fill-rule="nonzero"/><path fill="#ffffff" d="M 240.203125 290.171875 L 240.203125 290.964844 C 240.425781 290.671875 240.707031 290.441406 241.039062 290.28125 C 241.375 290.121094 241.726562 290.042969 242.097656 290.054688 C 243.429688 290.054688 244.105469 290.808594 244.125 292.320312 L 244.125 296.472656 L 243.039062 296.472656 L 243.039062 292.289062 C 243.070312 291.90625 242.964844 291.570312 242.726562 291.269531 C 242.457031 291.023438 242.136719 290.917969 241.773438 290.945312 C 241.433594 290.9375 241.125 291.035156 240.847656 291.230469 C 240.578125 291.421875 240.367188 291.664062 240.222656 291.960938 L 240.222656 296.472656 L 239.144531 296.472656 L 239.144531 290.144531 Z M 240.203125 290.171875 " fill-opacity="1" fill-rule="nonzero"/><path fill="#ffffff" d="M 251.175781 287.507812 L 252.261719 287.507812 L 252.261719 296.5 L 251.175781 296.5 Z M 251.175781 287.507812 " fill-opacity="1" fill-rule="nonzero"/><path fill="#ffffff" d="M 259.0625 295.878906 C 258.5625 296.425781 257.945312 296.671875 257.207031 296.617188 C 256.601562 296.660156 256.085938 296.464844 255.664062 296.03125 C 255.261719 295.519531 255.082031 294.941406 255.132812 294.292969 L 255.132812 290.144531 L 256.210938 290.144531 L 256.210938 294.230469 C 256.210938 295.191406 256.605469 295.671875 257.386719 295.671875 C 257.730469 295.710938 258.054688 295.644531 258.359375 295.476562 C 258.660156 295.308594 258.886719 295.066406 259.035156 294.75 L 259.035156 290.144531 L 260.113281 290.144531 L 260.113281 296.472656 L 259.082031 296.472656 Z M 259.0625 295.878906 " fill-opacity="1" fill-rule="nonzero"/><path fill="#ffffff" d="M 263.945312 290.171875 L 263.945312 290.863281 C 264.4375 290.28125 265.0625 290.007812 265.820312 290.039062 C 266.199219 290 266.554688 290.074219 266.886719 290.261719 C 267.21875 290.449219 267.46875 290.714844 267.632812 291.054688 C 267.847656 290.746094 268.121094 290.5 268.457031 290.324219 C 268.828125 290.125 269.226562 290.027344 269.652344 290.039062 C 271.035156 290.039062 271.726562 290.78125 271.769531 292.246094 L 271.769531 296.488281 L 270.683594 296.488281 L 270.683594 292.335938 C 270.710938 291.960938 270.609375 291.625 270.378906 291.324219 C 270.078125 291.0625 269.730469 290.949219 269.335938 290.988281 C 268.953125 290.972656 268.617188 291.09375 268.332031 291.347656 C 268.050781 291.609375 267.898438 291.933594 267.867188 292.316406 L 267.867188 296.515625 L 266.78125 296.515625 L 266.78125 292.363281 C 266.808594 292.175781 266.796875 291.992188 266.738281 291.8125 C 266.679688 291.628906 266.582031 291.472656 266.453125 291.335938 C 266.320312 291.199219 266.164062 291.101562 265.984375 291.039062 C 265.804688 290.976562 265.621094 290.957031 265.433594 290.980469 C 265.117188 290.957031 264.824219 291.027344 264.554688 291.195312 C 264.285156 291.363281 264.089844 291.59375 263.972656 291.886719 L 263.972656 296.507812 L 262.894531 296.507812 L 262.894531 290.175781 Z M 263.945312 290.171875 " fill-opacity="1" fill-rule="nonzero"/><path fill="#ffffff" d="M 274.597656 288.476562 C 274.597656 288.308594 274.652344 288.160156 274.757812 288.03125 C 274.890625 287.902344 275.050781 287.839844 275.234375 287.851562 C 275.421875 287.839844 275.582031 287.898438 275.710938 288.03125 C 275.828125 288.15625 275.882812 288.304688 275.878906 288.476562 C 275.882812 288.644531 275.828125 288.792969 275.710938 288.917969 C 275.578125 289.050781 275.421875 289.109375 275.234375 289.089844 C 275.050781 289.105469 274.890625 289.046875 274.757812 288.917969 C 274.648438 288.792969 274.59375 288.644531 274.597656 288.476562 Z M 275.769531 296.488281 L 274.6875 296.488281 L 274.6875 290.15625 L 275.769531 290.15625 Z M 275.769531 296.488281 " fill-opacity="1" fill-rule="nonzero"/><path fill="#ffffff" d="M 281.289062 296.617188 C 280.472656 296.644531 279.78125 296.363281 279.210938 295.773438 C 278.632812 295.128906 278.367188 294.375 278.410156 293.511719 L 278.410156 293.316406 C 278.398438 292.730469 278.519531 292.167969 278.769531 291.636719 C 278.992188 291.15625 279.328125 290.769531 279.773438 290.480469 C 280.191406 290.203125 280.652344 290.0625 281.15625 290.058594 C 281.929688 290.015625 282.570312 290.289062 283.074219 290.875 C 283.589844 291.570312 283.820312 292.34375 283.765625 293.207031 L 283.765625 293.65625 L 279.484375 293.65625 C 279.472656 294.230469 279.652344 294.734375 280.027344 295.164062 C 280.382812 295.566406 280.828125 295.761719 281.363281 295.746094 C 281.707031 295.753906 282.03125 295.675781 282.332031 295.511719 C 282.601562 295.347656 282.832031 295.140625 283.023438 294.890625 L 283.714844 295.40625 C 283.453125 295.816406 283.101562 296.125 282.667969 296.34375 C 282.230469 296.558594 281.773438 296.652344 281.289062 296.617188 Z M 281.773438 289.230469 L 280.867188 289.230469 L 279.359375 287.507812 L 280.660156 287.507812 Z M 281.15625 290.945312 C 280.71875 290.9375 280.351562 291.097656 280.058594 291.421875 C 279.726562 291.808594 279.539062 292.25 279.503906 292.757812 L 282.679688 292.757812 L 282.679688 292.675781 C 282.675781 292.195312 282.527344 291.769531 282.230469 291.394531 C 281.941406 291.078125 281.582031 290.929688 281.15625 290.945312 Z M 281.15625 290.945312 " fill-opacity="1" fill-rule="nonzero"/><path fill="#ffffff" d="M 289.238281 291.144531 C 289.058594 291.117188 288.882812 291.105469 288.703125 291.105469 C 288.390625 291.078125 288.097656 291.148438 287.828125 291.316406 C 287.5625 291.484375 287.371094 291.714844 287.257812 292.011719 L 287.257812 296.5 L 286.171875 296.5 L 286.171875 290.171875 L 287.230469 290.171875 L 287.230469 290.902344 C 287.386719 290.632812 287.597656 290.421875 287.871094 290.269531 C 288.140625 290.117188 288.433594 290.042969 288.746094 290.054688 C 288.910156 290.042969 289.070312 290.070312 289.222656 290.136719 Z M 289.238281 291.144531 " fill-opacity="1" fill-rule="nonzero"/><path fill="#ffffff" d="M 293.90625 296.617188 C 293.089844 296.644531 292.398438 296.363281 291.832031 295.773438 C 291.246094 295.132812 290.976562 294.378906 291.023438 293.511719 L 291.023438 293.316406 C 291.011719 292.730469 291.128906 292.167969 291.382812 291.636719 C 291.605469 291.15625 291.941406 290.773438 292.382812 290.480469 C 292.804688 290.203125 293.265625 290.0625 293.769531 290.058594 C 294.542969 290.015625 295.183594 290.289062 295.691406 290.875 C 296.207031 291.566406 296.441406 292.34375 296.382812 293.207031 L 296.382812 293.65625 L 292.09375 293.65625 C 292.085938 294.230469 292.269531 294.730469 292.640625 295.164062 C 292.996094 295.566406 293.441406 295.761719 293.976562 295.746094 C 294.320312 295.753906 294.640625 295.675781 294.945312 295.511719 C 295.214844 295.347656 295.445312 295.140625 295.636719 294.890625 L 296.328125 295.40625 C 296.0625 295.8125 295.714844 296.125 295.28125 296.339844 C 294.847656 296.558594 294.390625 296.648438 293.90625 296.617188 Z M 293.773438 290.945312 C 293.335938 290.9375 292.96875 291.097656 292.675781 291.421875 C 292.347656 291.808594 292.160156 292.253906 292.121094 292.757812 L 295.296875 292.757812 L 295.296875 292.675781 C 295.292969 292.199219 295.144531 291.773438 294.855469 291.394531 C 294.5625 291.078125 294.203125 290.925781 293.773438 290.945312 Z M 293.773438 290.945312 " fill-opacity="1" fill-rule="nonzero"/><path fill="#ffffff" d="M 105.472656 158.664062 C 105.472656 158.664062 114.210938 138.253906 108.046875 132.058594 C 104.144531 128.101562 91.808594 133.476562 105.472656 158.664062 Z M 105.472656 158.664062 " fill-opacity="1" fill-rule="nonzero"/><path fill="#ffffff" d="M 119.433594 164.59375 C 119.433594 164.59375 137.910156 152.230469 136.078125 143.671875 C 134.941406 138.253906 121.671875 136.054688 119.433594 164.59375 Z M 119.433594 164.59375 " fill-opacity="1" fill-rule="nonzero"/><path fill="#ffffff" d="M 92.050781 164.59375 C 92.050781 164.59375 73.613281 152.230469 75.40625 143.671875 C 76.546875 138.253906 89.816406 136.054688 92.050781 164.59375 Z M 92.050781 164.59375 " fill-opacity="1" fill-rule="nonzero"/><path fill="#ffffff" d="M 84.523438 270.367188 L 84.46875 270.367188 L 84.523438 270.402344 Z M 84.523438 270.367188 " fill-opacity="1" fill-rule="nonzero"/><path fill="#ffffff" d="M 103.554688 175.011719 C 105.785156 174.902344 108.011719 174.960938 110.234375 175.175781 C 112.453125 175.394531 114.648438 175.773438 116.816406 176.3125 C 118.980469 176.851562 121.097656 177.546875 123.160156 178.394531 C 125.226562 179.246094 127.21875 180.238281 129.136719 181.378906 C 131.058594 182.519531 132.882812 183.792969 134.617188 185.199219 C 136.351562 186.605469 137.972656 188.132812 139.480469 189.773438 C 140.992188 191.417969 142.375 193.164062 143.628906 195.011719 C 144.886719 196.855469 146 198.785156 146.972656 200.792969 L 146.972656 168.132812 L 64.511719 168.132812 L 64.511719 200.792969 C 65.402344 198.949219 66.417969 197.171875 67.546875 195.464844 C 68.679688 193.753906 69.921875 192.128906 71.269531 190.589844 C 72.621094 189.046875 74.066406 187.601562 75.609375 186.253906 C 77.15625 184.90625 78.78125 183.667969 80.492188 182.539062 C 82.203125 181.410156 83.980469 180.398438 85.824219 179.507812 C 87.671875 178.617188 89.566406 177.855469 91.515625 177.21875 C 93.464844 176.582031 95.445312 176.082031 97.460938 175.710938 C 99.476562 175.339844 101.507812 175.105469 103.554688 175.011719 Z M 103.554688 175.011719 " fill-opacity="1" fill-rule="nonzero"/><path fill="#ffffff" d="M 142.332031 248.277344 C 139.820312 252.429688 135.253906 259.492188 131.011719 263.613281 C 130.429688 264.363281 129.835938 265.082031 129.222656 265.757812 C 124.253906 271.296875 118.515625 275.867188 112.003906 279.464844 C 115.769531 279.523438 119.425781 278.933594 122.980469 277.6875 C 122.980469 277.6875 122.828125 289.023438 120.429688 293.507812 C 120.429688 293.507812 93.863281 293.6875 86.890625 285.425781 C 86.890625 285.425781 83.347656 279.683594 84.46875 270.34375 C 106.460938 267.800781 119.839844 256.871094 126.328125 249.847656 C 127.65625 247.925781 128.992188 246.1875 130.003906 244.921875 C 130.175781 244.730469 130.335938 244.535156 130.5 244.339844 L 130.5 244.140625 L 130.796875 243.976562 C 132.253906 242.214844 133.535156 240.332031 134.640625 238.332031 C 135.746094 236.332031 136.660156 234.246094 137.375 232.074219 C 138.089844 229.90625 138.601562 227.6875 138.902344 225.421875 C 139.207031 223.15625 139.296875 220.882812 139.175781 218.601562 C 138.234375 198.9375 122.476562 183.714844 103.992188 184.597656 C 85.507812 185.484375 71.277344 202.148438 72.21875 221.808594 C 72.3125 223.964844 72.589844 226.09375 73.058594 228.203125 C 73.523438 230.308594 74.171875 232.355469 74.996094 234.347656 C 75.824219 236.339844 76.816406 238.246094 77.976562 240.066406 C 79.136719 241.886719 80.445312 243.589844 81.902344 245.179688 L 82.039062 245.304688 C 82.546875 245.84375 83.070312 246.355469 83.605469 246.867188 C 83.605469 246.867188 93.648438 257.628906 108.597656 254.332031 C 123.546875 251.03125 124.808594 244.21875 124.808594 244.21875 C 124.808594 244.21875 124.039062 258.414062 101.640625 262.382812 C 87.566406 264.878906 75.425781 255.089844 75.425781 255.089844 C 74.695312 254.441406 73.980469 253.777344 73.289062 253.09375 L 73.101562 252.925781 C 69.558594 249.308594 66.695312 245.210938 64.511719 240.640625 L 64.511719 313.132812 L 146.972656 313.132812 L 146.972656 240.613281 C 145.675781 243.320312 144.128906 245.875 142.332031 248.277344 Z M 105.5625 306.269531 C 94.707031 305.585938 96.402344 295.636719 96.402344 295.636719 C 96.402344 295.636719 112.070312 300.894531 118.976562 298.667969 C 118.988281 298.675781 116.421875 306.957031 105.5625 306.269531 Z M 105.5625 306.269531 " fill-opacity="1" fill-rule="nonzero"/><path fill="#ffffff" d="M 159.445312 168.035156 L 171.898438 168.035156 C 174.457031 168.035156 175.257812 168.921875 175.257812 171.40625 L 175.257812 210.898438 L 194.566406 210.898438 C 197.050781 210.898438 197.9375 211.703125 197.9375 214.269531 L 197.9375 221.5625 C 197.9375 224.042969 197.050781 224.921875 194.566406 224.921875 L 159.445312 224.921875 " fill-opacity="1" fill-rule="nonzero"/><path fill="#ffffff" d="M 203.195312 221.71875 L 203.195312 171.21875 C 203.195312 168.820312 203.996094 168.015625 206.402344 168.015625 L 215.777344 168.015625 C 218.179688 168.015625 218.980469 168.820312 218.980469 171.21875 L 218.980469 221.71875 C 218.980469 224.121094 218.179688 224.921875 215.777344 224.921875 L 206.398438 224.921875 C 203.996094 224.921875 203.195312 224.121094 203.195312 221.71875 Z M 203.195312 221.71875 " fill-opacity="1" fill-rule="nonzero"/><path fill="#ffffff" d="M 227.191406 203.457031 L 227.191406 189.511719 C 227.191406 176.332031 235.617188 168.132812 250.710938 168.132812 C 262.507812 168.132812 269.863281 172.976562 273.007812 181.539062 C 273.847656 183.761719 273.238281 184.832031 271.015625 185.691406 L 262.820312 188.605469 C 260.4375 189.296875 259.527344 188.910156 258.667969 186.527344 C 257.285156 183.070312 255.0625 181.546875 250.699219 181.546875 C 244.644531 181.546875 242.273438 184.15625 242.273438 189.441406 L 242.273438 203.53125 C 242.273438 208.824219 244.644531 211.425781 250.699219 211.425781 C 255.832031 211.425781 259 209.511719 259 206.21875 L 259 204.6875 L 251.632812 204.6875 C 249.261719 204.6875 248.414062 203.84375 248.414062 201.472656 L 248.414062 195.722656 C 248.414062 193.265625 249.261719 192.429688 251.632812 192.429688 L 271.003906 192.429688 C 273.375 192.429688 274.21875 193.265625 274.21875 195.722656 L 274.21875 205.835938 C 274.21875 216.636719 265.785156 224.832031 250.699219 224.832031 C 235.609375 224.832031 227.191406 216.628906 227.191406 203.457031 Z M 227.191406 203.457031 " fill-opacity="1" fill-rule="nonzero"/><path fill="#ffffff" d="M 282.050781 221.5625 L 282.050781 171.40625 C 282.050781 168.921875 282.851562 168.035156 285.414062 168.035156 L 294.46875 168.035156 C 297.035156 168.035156 297.835938 168.921875 297.835938 171.40625 L 297.835938 189.101562 L 313.375 189.101562 L 313.375 171.40625 C 313.375 168.921875 314.261719 168.035156 316.832031 168.035156 L 325.882812 168.035156 C 328.367188 168.035156 329.246094 168.921875 329.246094 171.40625 L 329.246094 221.5625 C 329.246094 224.042969 328.367188 224.921875 325.882812 224.921875 L 316.828125 224.921875 C 314.261719 224.921875 313.367188 224.042969 313.367188 221.5625 L 313.367188 203.046875 L 297.835938 203.046875 L 297.835938 221.5625 C 297.835938 224.042969 297.035156 224.921875 294.46875 224.921875 L 285.414062 224.921875 C 282.851562 224.921875 282.050781 224.042969 282.050781 221.5625 Z M 282.050781 221.5625 " fill-opacity="1" fill-rule="nonzero"/><path fill="#ffffff" d="M 349.847656 221.5625 L 349.847656 181.976562 L 337.90625 181.976562 C 335.339844 181.976562 334.535156 181.179688 334.535156 178.613281 L 334.535156 171.40625 C 334.535156 168.921875 335.339844 168.035156 337.90625 168.035156 L 377.566406 168.035156 C 380.125 168.035156 380.929688 168.921875 380.929688 171.40625 L 380.929688 178.613281 C 380.929688 181.179688 380.125 181.976562 377.566406 181.976562 L 365.625 181.976562 L 365.625 221.5625 C 365.625 224.042969 364.824219 224.921875 362.261719 224.921875 L 353.207031 224.921875 C 350.640625 224.921875 349.847656 224.042969 349.847656 221.5625 Z M 349.847656 221.5625 " fill-opacity="1" fill-rule="nonzero"/><path fill="#ffffff" d="M 159.445312 237.390625 L 186.28125 237.390625 C 197.347656 237.390625 203.988281 242.757812 203.988281 252.53125 C 203.988281 257.902344 202.308594 261.523438 198.21875 264.292969 L 198.21875 264.609375 C 203.347656 266.859375 206.3125 271.425781 206.3125 278.390625 C 206.3125 288.726562 197.902344 294.253906 186.605469 294.253906 L 159.445312 294.253906 M 187.960938 254.675781 C 187.960938 251.550781 186.203125 250.1875 183 250.1875 L 175.226562 250.1875 L 175.226562 259 L 183 259 C 186.203125 259.019531 187.960938 257.824219 187.960938 254.699219 Z M 189.726562 276.550781 C 189.726562 273.347656 187.960938 271.902344 184.515625 271.902344 L 175.226562 271.902344 L 175.226562 281.359375 L 184.515625 281.359375 C 187.960938 281.378906 189.726562 279.933594 189.726562 276.570312 Z M 189.726562 276.550781 " fill-opacity="1" fill-rule="nonzero"/><path fill="#ffffff" d="M 212.125 272.808594 L 212.125 258.839844 C 212.125 245.613281 220.503906 237.394531 235.730469 237.394531 C 250.953125 237.394531 259.324219 245.621094 259.324219 258.839844 L 259.324219 272.808594 C 259.324219 286.027344 250.871094 294.253906 235.730469 294.253906 C 220.585938 294.253906 212.125 286.050781 212.125 272.808594 Z M 244.105469 273.425781 L 244.105469 258.203125 C 244.105469 253.363281 241.027344 250.824219 235.730469 250.824219 C 230.429688 250.824219 227.269531 253.363281 227.269531 258.203125 L 227.269531 273.425781 C 227.269531 278.265625 230.347656 280.804688 235.730469 280.804688 C 241.109375 280.804688 244.105469 278.289062 244.105469 273.445312 Z M 244.105469 273.425781 " fill-opacity="1" fill-rule="nonzero"/><path fill="#ffffff" d="M 261.53125 290.914062 L 278.039062 265.273438 L 262.335938 240.597656 C 261.136719 238.835938 261.699219 237.390625 263.941406 237.390625 L 273.5 237.390625 C 277.589844 237.390625 278.625 237.714844 280.148438 240.199219 L 287.335938 252.613281 L 294.46875 240.199219 C 295.992188 237.546875 297.027344 237.390625 300.632812 237.390625 L 310.890625 237.390625 C 313.132812 237.390625 313.617188 238.835938 312.496094 240.597656 L 296.625 265.273438 L 313.292969 290.914062 C 314.578125 292.675781 314.09375 294.273438 311.609375 294.273438 L 301.351562 294.273438 C 297.199219 294.273438 296.226562 294.039062 294.703125 291.3125 L 287.09375 278.09375 L 279.644531 291.3125 C 278.121094 293.796875 277.402344 294.273438 273.070312 294.273438 L 263.21875 294.273438 C 260.8125 294.253906 260.253906 292.871094 261.53125 290.914062 Z M 261.53125 290.914062 " fill-opacity="1" fill-rule="nonzero"/><path fill="#ffffff" d="M 162.054688 311.878906 L 163.625 307.039062 L 164.730469 307.039062 L 162.453125 313.367188 L 161.632812 313.367188 L 159.355469 307.015625 L 160.460938 307.015625 Z M 162.054688 311.878906 " fill-opacity="1" fill-rule="nonzero"/><path fill="#ffffff" d="M 166.554688 310.125 C 166.550781 309.535156 166.671875 308.980469 166.921875 308.449219 C 167.152344 307.96875 167.488281 307.589844 167.941406 307.308594 C 168.398438 307.027344 168.890625 306.890625 169.425781 306.898438 C 170.261719 306.875 170.953125 307.175781 171.503906 307.800781 C 172.078125 308.488281 172.34375 309.28125 172.296875 310.179688 L 172.296875 310.253906 C 172.308594 310.835938 172.191406 311.390625 171.945312 311.914062 C 171.722656 312.394531 171.386719 312.777344 170.9375 313.058594 C 170.472656 313.34375 169.964844 313.476562 169.421875 313.464844 C 168.589844 313.492188 167.898438 313.195312 167.34375 312.574219 C 166.769531 311.886719 166.503906 311.09375 166.542969 310.199219 Z M 167.644531 310.253906 C 167.613281 310.875 167.777344 311.4375 168.132812 311.941406 C 168.289062 312.148438 168.484375 312.304688 168.714844 312.417969 C 168.945312 312.53125 169.1875 312.589844 169.445312 312.589844 C 169.703125 312.589844 169.945312 312.53125 170.175781 312.417969 C 170.40625 312.304688 170.597656 312.148438 170.753906 311.941406 C 171.117188 311.390625 171.277344 310.789062 171.238281 310.128906 C 171.269531 309.511719 171.101562 308.949219 170.742188 308.441406 C 170.417969 307.996094 169.980469 307.78125 169.425781 307.800781 C 168.886719 307.785156 168.453125 307.996094 168.132812 308.4375 C 167.769531 308.988281 167.613281 309.59375 167.65625 310.253906 Z M 167.644531 310.253906 " fill-opacity="1" fill-rule="nonzero"/><path fill="#ffffff" d="M 176.3125 305.480469 L 176.3125 307.015625 L 177.492188 307.015625 L 177.492188 307.855469 L 176.3125 307.855469 L 176.3125 311.785156 C 176.296875 311.992188 176.347656 312.183594 176.46875 312.359375 C 176.621094 312.5 176.800781 312.5625 177.007812 312.542969 C 177.183594 312.539062 177.351562 312.515625 177.519531 312.476562 L 177.519531 313.355469 C 177.25 313.425781 176.972656 313.464844 176.691406 313.464844 C 176.257812 313.496094 175.890625 313.351562 175.597656 313.027344 C 175.320312 312.660156 175.195312 312.246094 175.226562 311.785156 L 175.226562 307.855469 L 174.078125 307.855469 L 174.078125 307.015625 L 175.226562 307.015625 L 175.226562 305.480469 Z M 176.3125 305.480469 " fill-opacity="1" fill-rule="nonzero"/><path fill="#ffffff" d="M 182.980469 307.992188 C 182.804688 307.964844 182.625 307.949219 182.445312 307.953125 C 182.132812 307.925781 181.839844 307.996094 181.574219 308.164062 C 181.304688 308.332031 181.113281 308.5625 181 308.859375 L 181 313.347656 L 179.921875 313.347656 L 179.921875 307.015625 L 180.972656 307.015625 L 180.972656 307.75 C 181.125 307.480469 181.339844 307.269531 181.609375 307.117188 C 181.878906 306.964844 182.171875 306.890625 182.480469 306.898438 C 182.648438 306.890625 182.804688 306.917969 182.957031 306.984375 Z M 182.980469 307.992188 " fill-opacity="1" fill-rule="nonzero"/><path fill="#ffffff" d="M 187.65625 313.464844 C 186.839844 313.488281 186.148438 313.207031 185.582031 312.621094 C 184.996094 311.980469 184.726562 311.226562 184.769531 310.359375 L 184.769531 310.164062 C 184.761719 309.578125 184.878906 309.015625 185.132812 308.484375 C 185.355469 308 185.695312 307.617188 186.140625 307.328125 C 186.558594 307.046875 187.019531 306.90625 187.523438 306.90625 C 188.300781 306.863281 188.941406 307.136719 189.449219 307.722656 C 189.964844 308.414062 190.195312 309.191406 190.140625 310.054688 L 190.140625 310.503906 L 185.851562 310.503906 C 185.835938 311.078125 186.019531 311.582031 186.398438 312.011719 C 186.75 312.414062 187.191406 312.609375 187.726562 312.59375 C 188.070312 312.601562 188.394531 312.523438 188.699219 312.359375 C 188.96875 312.191406 189.199219 311.984375 189.394531 311.734375 L 190.085938 312.253906 C 189.820312 312.660156 189.46875 312.972656 189.035156 313.191406 C 188.601562 313.40625 188.140625 313.5 187.65625 313.464844 Z M 187.519531 307.792969 C 187.078125 307.785156 186.710938 307.941406 186.417969 308.269531 C 186.089844 308.652344 185.90625 309.097656 185.871094 309.605469 L 189.039062 309.605469 L 189.039062 309.523438 C 189.039062 309.042969 188.890625 308.617188 188.597656 308.242188 C 188.308594 307.925781 187.949219 307.773438 187.519531 307.792969 Z M 187.519531 307.792969 " fill-opacity="1" fill-rule="nonzero"/><path fill="#ffffff" d="M 197.6875 307.015625 L 197.6875 307.710938 C 198.179688 307.128906 198.808594 306.855469 199.570312 306.886719 C 199.945312 306.847656 200.300781 306.921875 200.632812 307.109375 C 200.960938 307.296875 201.210938 307.558594 201.375 307.902344 C 201.605469 307.574219 201.898438 307.320312 202.253906 307.140625 C 202.613281 306.957031 202.992188 306.875 203.394531 306.886719 C 204.777344 306.886719 205.46875 307.625 205.511719 309.09375 L 205.511719 313.332031 L 204.460938 313.332031 L 204.460938 309.183594 C 204.488281 308.804688 204.386719 308.46875 204.148438 308.171875 C 203.847656 307.910156 203.5 307.796875 203.105469 307.832031 C 202.722656 307.816406 202.390625 307.9375 202.109375 308.195312 C 201.824219 308.453125 201.667969 308.777344 201.644531 309.160156 L 201.644531 313.359375 L 200.550781 313.359375 L 200.550781 309.210938 C 200.578125 309.023438 200.566406 308.839844 200.507812 308.65625 C 200.449219 308.476562 200.355469 308.320312 200.222656 308.183594 C 200.089844 308.046875 199.933594 307.949219 199.753906 307.886719 C 199.574219 307.824219 199.390625 307.804688 199.203125 307.828125 C 198.886719 307.800781 198.59375 307.875 198.324219 308.039062 C 198.054688 308.207031 197.859375 308.4375 197.742188 308.734375 L 197.742188 313.355469 L 196.664062 313.355469 L 196.664062 307.023438 Z M 197.6875 307.015625 " fill-opacity="1" fill-rule="nonzero"/><path fill="#ffffff" d="M 212.25 313.347656 C 212.15625 313.125 212.101562 312.894531 212.089844 312.65625 C 211.609375 313.1875 211.007812 313.445312 210.292969 313.4375 C 209.710938 313.460938 209.199219 313.285156 208.753906 312.910156 C 208.34375 312.558594 208.140625 312.113281 208.152344 311.570312 C 208.140625 311.265625 208.199219 310.976562 208.332031 310.703125 C 208.46875 310.429688 208.660156 310.207031 208.90625 310.035156 C 209.554688 309.621094 210.257812 309.4375 211.023438 309.488281 L 212.078125 309.488281 L 212.078125 308.988281 C 212.097656 308.636719 211.984375 308.335938 211.738281 308.082031 C 211.449219 307.832031 211.117188 307.71875 210.734375 307.742188 C 210.378906 307.730469 210.054688 307.828125 209.765625 308.035156 C 209.515625 308.199219 209.386719 308.429688 209.371094 308.726562 L 208.285156 308.726562 C 208.292969 308.382812 208.402344 308.074219 208.617188 307.804688 C 208.863281 307.5 209.167969 307.269531 209.53125 307.113281 C 209.9375 306.941406 210.363281 306.855469 210.804688 306.859375 C 211.441406 306.824219 212.011719 307.003906 212.511719 307.40625 C 212.957031 307.808594 213.171875 308.3125 213.15625 308.914062 L 213.15625 311.824219 C 213.136719 312.300781 213.214844 312.761719 213.382812 313.207031 L 213.382812 313.300781 Z M 210.449219 312.523438 C 210.792969 312.523438 211.117188 312.433594 211.414062 312.261719 C 211.71875 312.105469 211.949219 311.875 212.105469 311.570312 L 212.105469 310.269531 L 211.238281 310.269531 C 209.917969 310.269531 209.253906 310.65625 209.253906 311.4375 C 209.238281 311.757812 209.351562 312.023438 209.59375 312.234375 C 209.84375 312.4375 210.128906 312.53125 210.449219 312.523438 Z M 210.449219 312.523438 " fill-opacity="1" fill-rule="nonzero"/><path fill="#ffffff" d="M 219.078125 307.992188 C 218.902344 307.964844 218.722656 307.949219 218.542969 307.953125 C 218.230469 307.925781 217.9375 307.996094 217.671875 308.164062 C 217.402344 308.332031 217.210938 308.5625 217.097656 308.859375 L 217.097656 313.347656 L 216.019531 313.347656 L 216.019531 307.015625 L 217.070312 307.015625 L 217.070312 307.75 C 217.222656 307.480469 217.4375 307.269531 217.707031 307.117188 C 217.976562 306.964844 218.269531 306.890625 218.578125 306.898438 C 218.746094 306.890625 218.902344 306.917969 219.054688 306.984375 Z M 219.078125 307.992188 " fill-opacity="1" fill-rule="nonzero"/><path fill="#ffffff" d="M 220.863281 310.164062 C 220.816406 309.296875 221.046875 308.511719 221.554688 307.804688 C 221.773438 307.539062 222.039062 307.332031 222.351562 307.179688 C 222.660156 307.027344 222.988281 306.945312 223.332031 306.933594 C 223.679688 306.921875 224.011719 306.984375 224.328125 307.113281 C 224.648438 307.246094 224.925781 307.4375 225.164062 307.6875 L 225.214844 307.050781 L 226.210938 307.050781 L 226.210938 315.816406 L 225.125 315.816406 L 225.125 312.800781 C 224.648438 313.296875 224.066406 313.527344 223.378906 313.492188 C 223.019531 313.503906 222.679688 313.429688 222.355469 313.273438 C 222.03125 313.113281 221.765625 312.890625 221.554688 312.601562 C 221.050781 311.890625 220.820312 311.101562 220.863281 310.234375 Z M 221.949219 310.289062 C 221.914062 310.910156 222.066406 311.480469 222.40625 312 C 222.707031 312.429688 223.117188 312.636719 223.644531 312.621094 C 223.949219 312.628906 224.234375 312.554688 224.5 312.402344 C 224.765625 312.246094 224.972656 312.035156 225.117188 311.761719 L 225.117188 308.664062 C 224.96875 308.398438 224.765625 308.191406 224.503906 308.039062 C 224.242188 307.890625 223.960938 307.820312 223.65625 307.828125 C 223.128906 307.8125 222.710938 308.019531 222.40625 308.449219 C 222.0625 309.003906 221.910156 309.605469 221.949219 310.253906 Z M 221.949219 310.289062 " fill-opacity="1" fill-rule="nonzero"/><path fill="#ffffff" d="M 233.011719 312.726562 C 232.511719 313.269531 231.894531 313.515625 231.15625 313.464844 C 230.550781 313.507812 230.035156 313.3125 229.613281 312.875 C 229.210938 312.367188 229.03125 311.789062 229.074219 311.140625 L 229.074219 306.988281 L 230.160156 306.988281 L 230.160156 311.078125 C 230.160156 312.039062 230.546875 312.515625 231.328125 312.515625 C 231.675781 312.554688 232 312.492188 232.304688 312.324219 C 232.605469 312.152344 232.832031 311.910156 232.980469 311.597656 L 232.980469 306.988281 L 234.066406 306.988281 L 234.066406 313.320312 L 233.03125 313.320312 Z M 233.011719 312.726562 " fill-opacity="1" fill-rule="nonzero"/><path fill="#ffffff" d="M 239.5 313.464844 C 238.683594 313.488281 237.992188 313.207031 237.421875 312.621094 C 236.839844 311.980469 236.570312 311.226562 236.613281 310.359375 L 236.613281 310.164062 C 236.605469 309.578125 236.726562 309.015625 236.972656 308.484375 C 237.199219 308 237.535156 307.617188 237.984375 307.328125 C 238.402344 307.046875 238.863281 306.90625 239.367188 306.90625 C 240.140625 306.863281 240.785156 307.136719 241.289062 307.722656 C 241.808594 308.414062 242.039062 309.191406 241.980469 310.054688 L 241.980469 310.503906 L 237.691406 310.503906 C 237.679688 311.078125 237.863281 311.582031 238.238281 312.011719 C 238.589844 312.414062 239.035156 312.609375 239.566406 312.59375 C 239.914062 312.601562 240.238281 312.523438 240.542969 312.359375 C 240.8125 312.195312 241.042969 311.988281 241.234375 311.734375 L 241.925781 312.253906 C 241.664062 312.660156 241.3125 312.972656 240.878906 313.191406 C 240.441406 313.40625 239.984375 313.5 239.5 313.464844 Z M 239.359375 307.792969 C 238.921875 307.785156 238.554688 307.941406 238.261719 308.269531 C 237.929688 308.652344 237.75 309.097656 237.714844 309.605469 L 240.882812 309.605469 L 240.882812 309.523438 C 240.882812 309.042969 240.734375 308.617188 240.441406 308.242188 C 240.148438 307.925781 239.789062 307.773438 239.359375 307.792969 Z M 239.359375 307.792969 " fill-opacity="1" fill-rule="nonzero"/><path fill="#ffffff" d="M 251.140625 313.464844 C 250.324219 313.488281 249.632812 313.207031 249.066406 312.621094 C 248.484375 311.980469 248.210938 311.226562 248.257812 310.359375 L 248.257812 310.164062 C 248.246094 309.578125 248.367188 309.015625 248.617188 308.484375 C 248.84375 308 249.179688 307.617188 249.625 307.328125 C 250.042969 307.046875 250.507812 306.90625 251.011719 306.90625 C 251.785156 306.863281 252.425781 307.136719 252.933594 307.722656 C 253.449219 308.414062 253.679688 309.191406 253.625 310.054688 L 253.625 310.503906 L 249.335938 310.503906 C 249.320312 311.078125 249.503906 311.582031 249.882812 312.011719 C 250.234375 312.414062 250.675781 312.609375 251.210938 312.59375 C 251.558594 312.601562 251.882812 312.523438 252.1875 312.359375 C 252.457031 312.191406 252.6875 311.984375 252.878906 311.734375 L 253.570312 312.253906 C 253.304688 312.660156 252.957031 312.972656 252.519531 313.191406 C 252.085938 313.40625 251.625 313.5 251.140625 313.464844 Z M 251.003906 307.792969 C 250.5625 307.785156 250.199219 307.941406 249.902344 308.269531 C 249.574219 308.652344 249.390625 309.097656 249.355469 309.605469 L 252.523438 309.605469 L 252.523438 309.523438 C 252.523438 309.042969 252.378906 308.617188 252.082031 308.242188 C 251.792969 307.925781 251.433594 307.773438 251.003906 307.792969 Z M 251.003906 307.792969 " fill-opacity="1" fill-rule="nonzero"/><path fill="#ffffff" d="M 257.050781 307.015625 L 257.050781 307.8125 C 257.273438 307.515625 257.550781 307.289062 257.886719 307.128906 C 258.222656 306.964844 258.574219 306.890625 258.945312 306.898438 C 260.277344 306.898438 260.953125 307.65625 260.972656 309.167969 L 260.972656 313.320312 L 259.886719 313.320312 L 259.886719 309.132812 C 259.917969 308.753906 259.8125 308.414062 259.574219 308.117188 C 259.304688 307.871094 258.984375 307.761719 258.621094 307.792969 C 258.28125 307.785156 257.972656 307.878906 257.691406 308.074219 C 257.421875 308.265625 257.214844 308.511719 257.070312 308.808594 L 257.070312 313.320312 L 255.992188 313.320312 L 255.992188 306.988281 Z M 257.050781 307.015625 " fill-opacity="1" fill-rule="nonzero"/><path fill="#ffffff" d="M 268.019531 304.355469 L 269.105469 304.355469 L 269.105469 313.347656 L 268.019531 313.347656 Z M 268.019531 304.355469 " fill-opacity="1" fill-rule="nonzero"/><path fill="#ffffff" d="M 275.90625 312.726562 C 275.410156 313.269531 274.792969 313.515625 274.054688 313.464844 C 273.449219 313.507812 272.933594 313.3125 272.511719 312.875 C 272.109375 312.367188 271.929688 311.789062 271.976562 311.140625 L 271.976562 306.988281 L 273.058594 306.988281 L 273.058594 311.078125 C 273.058594 312.039062 273.453125 312.515625 274.234375 312.515625 C 274.578125 312.558594 274.902344 312.492188 275.207031 312.324219 C 275.507812 312.152344 275.734375 311.910156 275.878906 311.597656 L 275.878906 306.988281 L 276.960938 306.988281 L 276.960938 313.320312 L 275.929688 313.320312 Z M 275.90625 312.726562 " fill-opacity="1" fill-rule="nonzero"/><path fill="#ffffff" d="M 280.792969 307.015625 L 280.792969 307.710938 C 281.28125 307.128906 281.90625 306.855469 282.667969 306.886719 C 283.046875 306.847656 283.402344 306.921875 283.734375 307.109375 C 284.066406 307.296875 284.3125 307.558594 284.480469 307.902344 C 284.695312 307.59375 284.96875 307.347656 285.300781 307.167969 C 285.675781 306.96875 286.074219 306.875 286.5 306.886719 C 287.882812 306.886719 288.574219 307.625 288.617188 309.09375 L 288.617188 313.332031 L 287.53125 313.332031 L 287.53125 309.183594 C 287.558594 308.808594 287.457031 308.46875 287.226562 308.171875 C 286.925781 307.910156 286.578125 307.796875 286.179688 307.832031 C 285.796875 307.820312 285.464844 307.941406 285.175781 308.195312 C 284.898438 308.457031 284.746094 308.78125 284.714844 309.160156 L 284.714844 313.359375 L 283.628906 313.359375 L 283.628906 309.210938 C 283.65625 309.023438 283.640625 308.839844 283.582031 308.65625 C 283.527344 308.476562 283.429688 308.320312 283.296875 308.183594 C 283.164062 308.046875 283.007812 307.949219 282.832031 307.886719 C 282.652344 307.824219 282.46875 307.804688 282.277344 307.828125 C 281.960938 307.800781 281.671875 307.875 281.402344 308.039062 C 281.132812 308.207031 280.9375 308.4375 280.820312 308.734375 L 280.820312 313.355469 L 279.738281 313.355469 L 279.738281 307.023438 Z M 280.792969 307.015625 " fill-opacity="1" fill-rule="nonzero"/><path fill="#ffffff" d="M 291.445312 305.324219 C 291.445312 305.15625 291.496094 305.007812 291.605469 304.878906 C 291.738281 304.75 291.894531 304.6875 292.082031 304.699219 C 292.269531 304.6875 292.425781 304.746094 292.558594 304.878906 C 292.675781 305.003906 292.730469 305.152344 292.726562 305.324219 C 292.730469 305.492188 292.675781 305.640625 292.558594 305.765625 C 292.425781 305.898438 292.269531 305.953125 292.082031 305.9375 C 291.898438 305.953125 291.738281 305.894531 291.605469 305.765625 C 291.492188 305.636719 291.441406 305.492188 291.445312 305.324219 Z M 292.613281 313.332031 L 291.535156 313.332031 L 291.535156 307.003906 L 292.613281 307.003906 Z M 292.613281 313.332031 " fill-opacity="1" fill-rule="nonzero"/><path fill="#ffffff" d="M 298.136719 313.464844 C 297.320312 313.488281 296.625 313.207031 296.058594 312.621094 C 295.480469 311.976562 295.214844 311.222656 295.257812 310.359375 L 295.257812 310.164062 C 295.246094 309.578125 295.367188 309.015625 295.617188 308.484375 C 295.839844 308.003906 296.175781 307.617188 296.621094 307.328125 C 297.039062 307.050781 297.5 306.910156 298.003906 306.90625 C 298.777344 306.863281 299.414062 307.136719 299.917969 307.722656 C 300.4375 308.414062 300.667969 309.191406 300.613281 310.054688 L 300.613281 310.503906 L 296.328125 310.503906 C 296.320312 311.078125 296.5 311.578125 296.875 312.011719 C 297.230469 312.414062 297.675781 312.605469 298.210938 312.59375 C 298.554688 312.601562 298.878906 312.523438 299.179688 312.359375 C 299.449219 312.195312 299.679688 311.988281 299.871094 311.734375 L 300.5625 312.253906 C 300.296875 312.660156 299.949219 312.972656 299.511719 313.191406 C 299.078125 313.40625 298.621094 313.5 298.136719 313.464844 Z M 298.617188 306.078125 L 297.710938 306.078125 L 296.203125 304.355469 L 297.503906 304.355469 Z M 298.003906 307.792969 C 297.5625 307.785156 297.199219 307.941406 296.902344 308.269531 C 296.570312 308.652344 296.386719 309.097656 296.351562 309.605469 L 299.523438 309.605469 L 299.523438 309.523438 C 299.523438 309.042969 299.371094 308.617188 299.074219 308.242188 C 298.789062 307.925781 298.429688 307.777344 298.003906 307.792969 Z M 298.003906 307.792969 " fill-opacity="1" fill-rule="nonzero"/><path fill="#ffffff" d="M 306.082031 307.992188 C 305.90625 307.964844 305.730469 307.949219 305.550781 307.953125 C 305.234375 307.925781 304.945312 307.996094 304.675781 308.164062 C 304.410156 308.332031 304.21875 308.5625 304.105469 308.859375 L 304.105469 313.347656 L 303.019531 313.347656 L 303.019531 307.015625 L 304.078125 307.015625 L 304.078125 307.75 C 304.230469 307.480469 304.445312 307.269531 304.71875 307.117188 C 304.988281 306.964844 305.28125 306.890625 305.59375 306.898438 C 305.757812 306.890625 305.917969 306.917969 306.070312 306.984375 Z M 306.082031 307.992188 " fill-opacity="1" fill-rule="nonzero"/><path fill="#ffffff" d="M 310.753906 313.464844 C 309.9375 313.488281 309.246094 313.207031 308.675781 312.621094 C 308.09375 311.980469 307.824219 311.226562 307.867188 310.359375 L 307.867188 310.164062 C 307.855469 309.578125 307.976562 309.015625 308.226562 308.484375 C 308.453125 308.003906 308.789062 307.621094 309.230469 307.328125 C 309.648438 307.050781 310.109375 306.910156 310.613281 306.90625 C 311.390625 306.863281 312.03125 307.136719 312.539062 307.722656 C 313.054688 308.414062 313.285156 309.191406 313.230469 310.054688 L 313.230469 310.503906 L 308.941406 310.503906 C 308.933594 311.074219 309.117188 311.578125 309.488281 312.011719 C 309.839844 312.414062 310.285156 312.605469 310.820312 312.59375 C 311.167969 312.601562 311.488281 312.523438 311.789062 312.359375 C 312.0625 312.195312 312.292969 311.988281 312.484375 311.734375 L 313.175781 312.253906 C 312.910156 312.660156 312.5625 312.972656 312.128906 313.1875 C 311.695312 313.40625 311.238281 313.496094 310.753906 313.464844 Z M 310.621094 307.792969 C 310.183594 307.785156 309.816406 307.941406 309.523438 308.269531 C 309.191406 308.65625 309.007812 309.101562 308.96875 309.605469 L 312.144531 309.605469 L 312.144531 309.523438 C 312.140625 309.046875 311.992188 308.617188 311.699219 308.242188 C 311.410156 307.925781 311.050781 307.773438 310.621094 307.792969 Z M 310.621094 307.792969 " fill-opacity="1" fill-rule="nonzero"/></svg>