<svg xmlns="http://www.w3.org/2000/svg" xmlns:xlink="http://www.w3.org/1999/xlink" width="595" zoomAndPan="magnify" viewBox="0 0 446.25 446.249989" height="595" preserveAspectRatio="xMidYMid meet" version="1.0"><defs><clipPath id="0ec9ee7f8b"><path d="M 97.015625 104.789062 L 348.59375 104.789062 L 348.59375 340.644531 L 97.015625 340.644531 Z M 97.015625 104.789062 " clip-rule="nonzero"/></clipPath><clipPath id="800a478971"><path d="M 97.015625 295 L 143 295 L 143 340.644531 L 97.015625 340.644531 Z M 97.015625 295 " clip-rule="nonzero"/></clipPath></defs><g clip-path="url(#0ec9ee7f8b)"><path fill="#ffffff" d="M 327.613281 104.789062 C 318.238281 104.789062 309.550781 111.800781 304.875 119.835938 L 238.195312 239.304688 C 231.410156 251.460938 213.898438 251.441406 207.128906 239.285156 L 140.738281 119.835938 C 136.042969 111.800781 127.351562 104.789062 118 104.789062 C 107.960938 104.789062 97.277344 111.800781 97.277344 125.839844 C 97.277344 129.070312 98.167969 132.222656 99.859375 134.980469 L 143.078125 205.351562 L 203.25 317.941406 C 207.605469 325.957031 214.945312 330.632812 222.644531 330.632812 C 230.34375 330.632812 238.027344 325.957031 242.359375 317.941406 L 283.007812 241.449219 C 287.992188 232.082031 302.191406 235.617188 302.191406 246.21875 L 302.191406 317.390625 C 302.191406 329.945312 312.480469 340.699219 325.046875 340.625 C 338.03125 340.546875 348.316406 329.910156 348.316406 317.578125 L 348.316406 125.839844 C 348.316406 111.800781 337.632812 104.789062 327.59375 104.789062 Z M 327.613281 104.789062 " fill-opacity="1" fill-rule="nonzero"/></g><g clip-path="url(#800a478971)"><path fill="#ffffff" d="M 142.105469 318.015625 C 142.105469 318.75 142.070312 319.480469 142 320.210938 C 141.925781 320.941406 141.820312 321.667969 141.675781 322.386719 C 141.535156 323.105469 141.355469 323.816406 141.140625 324.519531 C 140.929688 325.21875 140.683594 325.910156 140.402344 326.585938 C 140.121094 327.265625 139.804688 327.929688 139.460938 328.574219 C 139.113281 329.222656 138.738281 329.851562 138.328125 330.460938 C 137.921875 331.070312 137.484375 331.660156 137.019531 332.226562 C 136.554688 332.792969 136.0625 333.335938 135.542969 333.855469 C 135.023438 334.375 134.480469 334.867188 133.910156 335.332031 C 133.34375 335.796875 132.753906 336.234375 132.144531 336.640625 C 131.535156 337.046875 130.90625 337.425781 130.257812 337.769531 C 129.609375 338.117188 128.949219 338.429688 128.269531 338.710938 C 127.589844 338.992188 126.902344 339.238281 126.199219 339.449219 C 125.496094 339.664062 124.785156 339.84375 124.066406 339.984375 C 123.34375 340.128906 122.621094 340.234375 121.886719 340.308594 C 121.15625 340.378906 120.425781 340.414062 119.691406 340.414062 C 118.957031 340.414062 118.226562 340.378906 117.496094 340.308594 C 116.761719 340.234375 116.039062 340.128906 115.316406 339.984375 C 114.597656 339.84375 113.886719 339.664062 113.183594 339.449219 C 112.480469 339.238281 111.792969 338.992188 111.113281 338.710938 C 110.433594 338.429688 109.773438 338.117188 109.125 337.769531 C 108.476562 337.425781 107.847656 337.046875 107.238281 336.640625 C 106.628906 336.234375 106.039062 335.796875 105.472656 335.332031 C 104.902344 334.867188 104.359375 334.375 103.839844 333.855469 C 103.320312 333.335938 102.828125 332.792969 102.363281 332.226562 C 101.898438 331.660156 101.460938 331.070312 101.054688 330.460938 C 100.644531 329.851562 100.269531 329.222656 99.921875 328.574219 C 99.578125 327.929688 99.261719 327.265625 98.980469 326.585938 C 98.699219 325.910156 98.453125 325.21875 98.242188 324.519531 C 98.027344 323.816406 97.847656 323.105469 97.707031 322.386719 C 97.5625 321.667969 97.457031 320.941406 97.382812 320.210938 C 97.3125 319.480469 97.277344 318.75 97.277344 318.015625 C 97.277344 317.28125 97.3125 316.550781 97.382812 315.820312 C 97.457031 315.089844 97.5625 314.367188 97.707031 313.644531 C 97.847656 312.925781 98.027344 312.214844 98.242188 311.511719 C 98.453125 310.8125 98.699219 310.121094 98.980469 309.445312 C 99.261719 308.765625 99.578125 308.105469 99.921875 307.457031 C 100.269531 306.808594 100.644531 306.179688 101.054688 305.570312 C 101.460938 304.960938 101.898438 304.371094 102.363281 303.804688 C 102.828125 303.238281 103.320312 302.695312 103.839844 302.175781 C 104.359375 301.65625 104.902344 301.164062 105.472656 300.699219 C 106.039062 300.234375 106.628906 299.796875 107.238281 299.390625 C 107.847656 298.984375 108.476562 298.605469 109.125 298.261719 C 109.773438 297.914062 110.433594 297.601562 111.113281 297.320312 C 111.792969 297.039062 112.480469 296.792969 113.183594 296.582031 C 113.886719 296.367188 114.597656 296.191406 115.316406 296.046875 C 116.039062 295.902344 116.761719 295.796875 117.496094 295.722656 C 118.226562 295.652344 118.957031 295.617188 119.691406 295.617188 C 120.425781 295.617188 121.15625 295.652344 121.886719 295.722656 C 122.621094 295.796875 123.34375 295.902344 124.066406 296.046875 C 124.785156 296.191406 125.496094 296.367188 126.199219 296.582031 C 126.902344 296.792969 127.589844 297.039062 128.269531 297.320312 C 128.949219 297.601562 129.609375 297.914062 130.257812 298.261719 C 130.90625 298.605469 131.535156 298.984375 132.144531 299.390625 C 132.753906 299.796875 133.34375 300.234375 133.910156 300.699219 C 134.480469 301.164062 135.023438 301.65625 135.542969 302.175781 C 136.0625 302.695312 136.554688 303.238281 137.019531 303.804688 C 137.484375 304.371094 137.921875 304.960938 138.328125 305.570312 C 138.738281 306.179688 139.113281 306.808594 139.460938 307.457031 C 139.804688 308.105469 140.121094 308.765625 140.402344 309.445312 C 140.683594 310.121094 140.929688 310.8125 141.140625 311.511719 C 141.355469 312.214844 141.535156 312.925781 141.675781 313.644531 C 141.820312 314.367188 141.925781 315.089844 142 315.820312 C 142.070312 316.550781 142.105469 317.28125 142.105469 318.015625 Z M 142.105469 318.015625 " fill-opacity="1" fill-rule="nonzero"/></g></svg>